<?xml version="1.0" standalone="no"?>
<!DOCTYPE svg PUBLIC "-//W3C//DTD SVG 20010904//EN"
 "http://www.w3.org/TR/2001/REC-SVG-20010904/DTD/svg10.dtd">
<svg version="1.0" xmlns="http://www.w3.org/2000/svg"
 width="276.000000pt" height="178.000000pt" viewBox="0 0 276.000000 178.000000"
 preserveAspectRatio="xMidYMid meet">

<g transform="translate(0.000000,178.000000) scale(0.100000,-0.100000)"
fill="#4f738e" stroke="none">
<path d="M397 1593 c-4 -3 -7 -42 -7 -85 l0 -78 -51 0 c-43 0 -57 5 -86 30
-60 53 -114 18 -121 -78 -4 -56 -3 -60 28 -85 42 -35 75 -34 110 3 24 26 35
30 80 30 l51 0 -7 -252 c-7 -237 -6 -251 10 -245 10 4 128 4 262 0 l244 -6 0
-74 0 -73 -115 0 -115 0 0 -77 c0 -43 -4 -83 -8 -89 -4 -6 -39 -19 -78 -28
-57 -14 -79 -25 -107 -54 -48 -50 -53 -70 -47 -191 l5 -105 57 -3 57 -3 -6 36
c-3 20 0 67 7 105 15 78 41 109 91 109 l29 0 0 -104 0 -104 28 -7 c15 -4 121
-1 237 5 116 6 275 14 354 18 l145 7 -3 106 -2 106 68 -4 c38 -3 94 0 124 6
30 7 88 16 129 21 109 12 195 54 242 116 21 27 46 58 56 69 33 34 56 75 92
164 38 92 57 107 111 89 24 -8 26 -13 22 -51 -5 -38 -1 -46 31 -79 79 -81 115
-63 174 88 56 143 55 163 -4 209 -66 50 -81 47 -139 -30 -27 -36 -51 -65 -54
-65 -21 1 -86 49 -91 67 -7 29 -46 73 -65 73 -9 0 -27 -12 -41 -27 l-26 -28
-18 23 c-15 19 -17 28 -9 50 19 50 3 90 -49 122 -60 37 -76 28 -114 -66 -16
-38 -32 -78 -38 -89 -24 -51 -40 -99 -40 -121 0 -27 44 -61 89 -70 30 -6 32
-4 57 50 14 31 29 56 32 56 4 0 25 -10 47 -23 52 -29 55 -57 16 -141 -17 -36
-31 -68 -31 -72 0 -9 -59 -75 -88 -98 -13 -10 -67 -36 -120 -58 -106 -44 -185
-55 -296 -44 l-66 8 0 51 c0 82 0 82 -155 82 l-135 -1 0 76 0 75 285 -3 c213
-3 290 -1 300 8 12 10 15 55 15 256 l0 244 41 0 c28 0 51 -8 74 -26 36 -27 63
-26 98 4 22 19 23 117 3 167 -25 59 -102 54 -122 -7 -9 -32 -22 -38 -76 -38
l-48 0 0 80 0 80 -658 0 c-362 0 -662 -3 -665 -7z m440 -279 c32 -32 33 -36
33 -115 0 -78 -1 -82 -31 -110 -26 -24 -40 -29 -81 -29 -70 0 -99 21 -126 89
-12 31 -22 69 -22 84 0 27 42 105 64 119 6 4 38 4 70 1 50 -5 65 -12 93 -39z
m585 -25 c50 -32 52 -37 49 -104 -3 -62 -10 -74 -53 -106 -69 -50 -169 -35
-203 31 -18 35 -20 143 -4 190 l12 33 75 -7 c61 -5 85 -12 124 -37z m-304
-305 c-5 -26 -51 -55 -94 -60 -42 -5 -80 10 -98 38 -16 26 1 34 25 12 31 -28
102 -26 131 4 27 26 41 28 36 6z"/>
</g>
</svg>
