<svg id="svg" version="1.1" xmlns="http://www.w3.org/2000/svg" xmlns:xlink="http://www.w3.org/1999/xlink" width="400" height="329.23832923832924" viewBox="0, 0, 400,329.23832923832924"><g id="svgg"><path id="path0" d="M81.549 120.067 C 75.919 120.813,72.766 122.185,70.412 124.913 C 67.120 128.728,67.718 135.343,71.764 139.868 C 74.326 142.733,76.771 148.084,76.771 150.824 C 76.771 152.705,73.195 155.278,70.840 155.091 C 69.009 154.947,64.917 155.489,63.097 156.117 C 61.227 156.763,48.511 157.117,38.880 156.792 C 32.507 156.577,28.458 156.914,26.267 157.843 C 25.401 158.211,24.548 158.422,24.372 158.314 C 24.197 158.205,24.053 158.273,24.053 158.465 C 24.053 158.657,23.830 158.814,23.558 158.814 C 23.229 158.814,23.064 159.143,23.064 159.802 C 23.064 160.461,22.900 160.791,22.570 160.791 C 22.204 160.791,22.076 161.175,22.076 162.273 C 22.076 163.372,21.948 163.756,21.582 163.756 C 21.174 163.756,21.087 164.360,21.087 167.216 C 21.087 170.071,21.001 170.675,20.593 170.675 C 19.847 170.675,19.847 191.925,20.593 192.211 C 21.339 192.498,21.339 218.614,20.593 218.900 C 20.189 219.055,20.099 219.871,20.099 223.383 C 20.099 226.980,20.019 227.677,19.605 227.677 C 19.209 227.677,19.110 228.171,19.110 230.148 C 19.110 232.125,19.012 232.619,18.616 232.619 C 18.221 232.619,18.122 233.114,18.122 235.091 C 18.122 237.068,18.023 237.562,17.628 237.562 C 16.883 237.562,16.883 255.938,17.628 256.224 C 17.900 256.328,18.122 256.773,18.122 257.212 C 18.122 257.651,18.344 258.096,18.616 258.200 C 18.888 258.305,19.110 258.745,19.110 259.179 C 19.110 259.660,19.303 259.967,19.605 259.967 C 19.876 259.967,20.099 260.189,20.099 260.461 C 20.099 260.733,20.321 260.956,20.593 260.956 C 20.865 260.956,21.087 261.178,21.087 261.450 C 21.087 261.722,21.373 261.944,21.723 261.944 C 22.072 261.944,22.581 262.166,22.852 262.438 C 23.124 262.710,23.658 262.932,24.040 262.932 C 24.421 262.932,24.818 263.155,24.922 263.427 C 25.051 263.762,25.576 263.921,26.559 263.921 C 27.626 263.921,28.007 264.051,28.007 264.415 C 28.007 264.827,28.666 264.909,31.960 264.909 C 35.255 264.909,35.914 264.992,35.914 265.404 C 35.914 265.815,36.573 265.898,39.868 265.898 C 43.163 265.898,43.822 265.815,43.822 265.404 C 43.822 264.997,44.409 264.909,47.127 264.909 C 49.761 264.909,50.471 264.809,50.622 264.415 C 50.765 264.043,51.365 263.921,53.056 263.921 C 54.410 263.921,55.348 263.776,55.422 263.554 C 55.510 263.289,63.904 263.175,85.774 263.142 C 107.304 263.110,116.072 262.993,116.239 262.736 C 116.369 262.537,117.279 262.281,118.262 262.168 C 119.245 262.054,120.137 261.819,120.245 261.644 C 120.356 261.466,123.141 261.282,126.625 261.224 C 130.818 261.154,132.885 260.999,133.044 260.742 C 133.186 260.513,134.564 260.319,136.546 260.248 C 138.780 260.169,139.857 260.002,139.951 259.720 C 140.041 259.448,140.799 259.308,142.179 259.308 C 143.598 259.308,144.428 259.149,144.763 258.814 C 145.056 258.521,145.862 258.320,146.740 258.320 C 147.619 258.320,148.424 258.118,148.717 257.825 C 149.083 257.459,149.980 257.331,152.177 257.331 C 154.374 257.331,155.271 257.203,155.637 256.837 C 155.908 256.565,156.512 256.343,156.978 256.343 C 157.512 256.343,157.825 256.160,157.825 255.848 C 157.825 255.553,158.129 255.354,158.582 255.354 C 159.019 255.354,159.681 254.942,160.147 254.380 C 160.592 253.844,161.141 253.399,161.367 253.391 C 161.594 253.384,161.779 253.155,161.779 252.883 C 161.779 252.611,162.002 252.389,162.273 252.389 C 162.545 252.389,162.768 252.182,162.768 251.930 C 162.768 251.677,162.990 251.385,163.262 251.281 C 163.534 251.177,163.756 250.795,163.756 250.434 C 163.756 250.072,164.201 249.321,164.745 248.764 C 165.446 248.047,165.733 247.432,165.733 246.647 C 165.733 245.967,165.924 245.467,166.227 245.350 C 166.601 245.207,166.722 244.603,166.722 242.879 C 166.722 241.155,166.842 240.551,167.216 240.408 C 167.956 240.124,167.956 221.710,167.216 220.970 C 166.850 220.604,166.722 219.707,166.722 217.510 C 166.722 215.313,166.593 214.416,166.227 214.050 C 165.956 213.779,165.733 213.111,165.733 212.568 C 165.733 212.024,165.511 211.357,165.239 211.085 C 164.967 210.813,164.745 210.340,164.745 210.034 C 164.745 209.257,162.327 206.919,161.524 206.919 C 161.159 206.919,160.776 206.697,160.672 206.425 C 160.567 206.153,160.176 205.931,159.802 205.931 C 159.428 205.931,159.037 206.153,158.933 206.425 C 158.804 206.761,158.279 206.919,157.296 206.919 C 156.229 206.919,155.848 207.049,155.848 207.414 C 155.848 207.685,155.626 207.908,155.354 207.908 C 155.082 207.908,154.860 208.114,154.860 208.367 C 154.860 208.619,154.638 208.911,154.366 209.015 C 154.094 209.120,153.871 209.564,153.871 210.004 C 153.871 210.443,153.649 210.888,153.377 210.992 C 153.051 211.117,152.883 211.633,152.883 212.510 C 152.883 213.766,152.829 213.839,151.895 213.839 C 151.236 213.839,150.906 214.003,150.906 214.333 C 150.906 214.662,150.577 214.827,149.918 214.827 C 149.259 214.827,148.929 214.992,148.929 215.321 C 148.929 215.651,148.600 215.815,147.941 215.815 C 147.282 215.815,146.952 215.980,146.952 216.310 C 146.952 216.582,146.730 216.804,146.458 216.804 C 146.149 216.804,145.964 216.492,145.964 215.970 C 145.964 215.511,145.741 215.050,145.470 214.946 C 145.076 214.795,144.975 214.089,144.975 211.487 C 144.975 208.884,144.874 208.178,144.481 208.027 C 144.097 207.879,143.987 207.230,143.987 205.107 C 143.987 202.984,143.877 202.335,143.493 202.187 C 143.204 202.076,142.998 201.583,142.998 200.999 C 142.998 200.331,143.162 200.000,143.493 200.000 C 143.872 200.000,143.987 199.578,143.987 198.177 C 143.987 196.861,144.124 196.302,144.481 196.165 C 144.753 196.061,144.975 195.637,144.975 195.222 C 144.975 194.808,145.198 194.384,145.470 194.280 C 145.741 194.175,145.964 193.715,145.964 193.256 C 145.964 192.734,146.149 192.422,146.458 192.422 C 146.730 192.422,146.952 192.199,146.952 191.928 C 146.952 191.535,147.431 191.433,149.282 191.433 C 150.914 191.433,151.760 191.581,152.106 191.928 C 152.423 192.244,153.236 192.422,154.366 192.422 C 155.495 192.422,156.309 192.244,156.625 191.928 C 156.897 191.656,157.368 191.433,157.673 191.433 C 158.451 191.433,161.779 188.019,161.779 187.221 C 161.779 186.858,162.002 186.476,162.273 186.372 C 162.545 186.267,162.768 185.823,162.768 185.383 C 162.768 184.944,162.990 184.499,163.262 184.395 C 163.585 184.271,163.756 183.758,163.756 182.912 C 163.756 182.067,163.927 181.553,164.250 181.429 C 164.672 181.268,164.745 179.982,164.745 172.652 C 164.745 165.323,164.672 164.037,164.250 163.875 C 163.979 163.771,163.756 163.326,163.756 162.887 C 163.756 162.448,163.534 162.003,163.262 161.898 C 162.990 161.794,162.768 161.384,162.768 160.987 C 162.768 160.590,162.330 159.903,161.793 159.457 C 161.257 159.013,160.812 158.464,160.805 158.237 C 160.797 158.011,160.568 157.825,160.297 157.825 C 159.967 157.825,159.802 157.496,159.802 156.837 C 159.802 156.178,159.638 155.848,159.308 155.848 C 159.036 155.848,158.814 155.626,158.814 155.354 C 158.814 155.082,158.591 154.860,158.320 154.860 C 158.048 154.860,157.825 154.749,157.824 154.613 C 157.823 154.477,157.294 154.338,156.648 154.305 C 156.002 154.272,155.002 153.893,154.425 153.463 C 152.451 151.990,150.034 150.655,148.905 150.413 C 148.284 150.280,147.628 150.056,147.446 149.916 C 146.945 149.528,137.946 148.814,136.339 149.035 C 128.515 150.110,127.286 150.219,126.359 149.919 C 125.003 149.480,115.061 148.941,108.072 148.927 C 98.014 148.908,96.725 148.500,96.341 145.220 L 96.120 143.323 99.015 140.607 C 100.607 139.113,102.147 137.797,102.438 137.682 C 104.591 136.831,107.605 132.264,107.950 129.329 C 108.827 121.865,97.627 117.935,81.549 120.067 " stroke="none" fill="#fb4ca3" fill-rule="evenodd"></path><path id="path1" d="M219.769 181.054 C 219.769 181.384,219.440 181.549,218.781 181.549 C 218.122 181.549,217.792 181.713,217.792 182.043 C 217.792 182.372,217.463 182.537,216.804 182.537 C 216.145 182.537,215.815 182.702,215.815 183.031 C 215.815 183.303,215.593 183.526,215.321 183.526 C 214.992 183.526,214.827 183.855,214.827 184.514 C 214.827 185.173,214.662 185.502,214.333 185.502 C 214.061 185.502,213.839 185.725,213.839 185.997 C 213.839 186.269,213.616 186.491,213.344 186.491 C 212.960 186.491,212.850 186.930,212.850 188.468 C 212.850 190.005,212.740 190.445,212.356 190.445 C 211.999 190.445,211.862 190.811,211.862 191.763 C 211.862 192.715,211.999 193.081,212.356 193.081 C 212.630 193.081,212.850 193.374,212.850 193.740 C 212.850 194.106,212.630 194.399,212.356 194.399 C 211.971 194.399,211.862 194.838,211.862 196.376 C 211.862 197.913,211.752 198.353,211.367 198.353 C 211.001 198.353,210.873 198.737,210.873 199.835 C 210.873 200.934,210.745 201.318,210.379 201.318 C 210.021 201.318,209.885 201.685,209.885 202.646 C 209.885 203.523,209.717 204.039,209.390 204.164 C 209.072 204.287,208.896 204.796,208.896 205.601 C 208.896 206.406,208.721 206.916,208.402 207.038 C 208.130 207.143,207.908 207.588,207.908 208.027 C 207.908 208.466,207.685 208.911,207.414 209.015 C 207.142 209.120,206.919 209.580,206.919 210.039 C 206.919 211.053,203.223 211.361,202.846 210.379 C 202.742 210.107,202.297 209.885,201.858 209.885 C 201.418 209.885,200.974 209.662,200.869 209.390 C 200.765 209.119,200.320 208.896,199.881 208.896 C 199.442 208.896,198.997 208.674,198.892 208.402 C 198.745 208.019,198.104 207.908,196.046 207.908 C 193.989 207.908,193.347 208.019,193.200 208.402 C 193.092 208.684,192.600 208.896,192.057 208.896 C 191.429 208.896,191.104 209.065,191.104 209.390 C 191.104 209.674,190.807 209.885,190.406 209.885 C 189.520 209.885,187.150 212.229,187.150 213.106 C 187.150 213.470,186.928 213.853,186.656 213.958 C 186.384 214.062,186.161 214.507,186.161 214.946 C 186.161 215.386,185.939 215.830,185.667 215.935 C 185.395 216.039,185.173 216.484,185.173 216.923 C 185.173 217.362,184.951 217.807,184.679 217.912 C 184.356 218.036,184.185 218.549,184.185 219.394 C 184.185 220.240,184.013 220.753,183.690 220.877 C 183.367 221.001,183.196 221.514,183.196 222.360 C 183.196 223.205,183.025 223.718,182.702 223.842 C 182.317 223.990,182.208 224.644,182.208 226.808 C 182.208 228.971,182.099 229.625,181.713 229.773 C 181.402 229.893,181.219 230.397,181.219 231.137 C 181.219 231.876,181.402 232.381,181.713 232.500 C 182.099 232.648,182.208 233.302,182.208 235.466 C 182.208 237.629,182.317 238.283,182.702 238.431 C 182.984 238.539,183.196 239.031,183.196 239.574 C 183.196 240.202,183.365 240.527,183.690 240.527 C 183.962 240.527,184.185 240.750,184.185 241.021 C 184.185 241.293,184.407 241.516,184.679 241.516 C 184.951 241.516,185.173 241.738,185.173 242.010 C 185.173 242.282,185.395 242.504,185.667 242.504 C 185.939 242.504,186.161 242.727,186.161 242.998 C 186.161 243.363,186.542 243.493,187.609 243.493 C 188.592 243.493,189.117 243.651,189.246 243.987 C 189.383 244.344,189.942 244.481,191.258 244.481 C 192.659 244.481,193.081 244.367,193.081 243.987 C 193.081 243.621,193.465 243.493,194.563 243.493 C 195.662 243.493,196.046 243.364,196.046 242.998 C 196.046 242.727,196.269 242.504,196.540 242.504 C 196.870 242.504,197.035 242.834,197.035 243.493 C 197.035 244.152,196.870 244.481,196.540 244.481 C 196.174 244.481,196.046 244.865,196.046 245.964 C 196.046 247.062,195.918 247.446,195.552 247.446 C 195.186 247.446,195.058 247.831,195.058 248.929 C 195.058 250.027,194.930 250.412,194.563 250.412 C 194.197 250.412,194.069 250.796,194.069 251.895 C 194.069 252.993,193.941 253.377,193.575 253.377 C 193.209 253.377,193.081 253.762,193.081 254.860 C 193.081 255.958,192.953 256.343,192.586 256.343 C 192.220 256.343,192.092 256.727,192.092 257.825 C 192.092 258.924,191.964 259.308,191.598 259.308 C 191.214 259.308,191.104 259.747,191.104 261.285 C 191.104 262.823,190.994 263.262,190.610 263.262 C 190.243 263.262,190.115 263.646,190.115 264.745 C 190.115 265.843,189.987 266.227,189.621 266.227 C 189.255 266.227,189.127 266.612,189.127 267.710 C 189.127 268.808,188.999 269.193,188.633 269.193 C 188.275 269.193,188.138 269.560,188.138 270.521 C 188.138 271.398,187.970 271.914,187.644 272.039 C 187.251 272.190,187.150 272.895,187.150 275.488 C 187.150 278.166,187.238 278.748,187.644 278.748 C 187.974 278.748,188.138 279.077,188.138 279.736 C 188.138 280.395,188.303 280.725,188.633 280.725 C 188.962 280.725,189.127 281.054,189.127 281.713 C 189.127 282.372,189.292 282.702,189.621 282.702 C 189.893 282.702,190.115 282.924,190.115 283.196 C 190.115 283.468,190.338 283.690,190.610 283.690 C 190.881 283.690,191.104 283.913,191.104 284.185 C 191.104 284.456,191.326 284.679,191.598 284.679 C 191.870 284.679,192.092 284.901,192.092 285.173 C 192.092 285.502,192.422 285.667,193.081 285.667 C 193.740 285.667,194.069 285.832,194.069 286.161 C 194.069 286.433,194.292 286.656,194.563 286.656 C 194.835 286.656,195.058 286.878,195.058 287.150 C 195.058 287.479,195.387 287.644,196.046 287.644 C 196.705 287.644,197.035 287.809,197.035 288.138 C 197.035 288.468,197.364 288.633,198.023 288.633 C 198.682 288.633,199.012 288.797,199.012 289.127 C 199.012 289.456,199.341 289.621,200.000 289.621 C 200.659 289.621,200.988 289.786,200.988 290.115 C 200.988 290.387,201.211 290.610,201.483 290.610 C 201.755 290.610,201.977 290.832,201.977 291.104 C 201.977 291.433,202.306 291.598,202.965 291.598 C 203.624 291.598,203.954 291.763,203.954 292.092 C 203.954 292.458,204.338 292.586,205.437 292.586 C 206.535 292.586,206.919 292.715,206.919 293.081 C 206.919 293.447,207.304 293.575,208.402 293.575 C 209.500 293.575,209.885 293.703,209.885 294.069 C 209.885 294.435,210.269 294.563,211.367 294.563 C 212.466 294.563,212.850 294.692,212.850 295.058 C 212.850 295.424,213.234 295.552,214.333 295.552 C 215.431 295.552,215.815 295.680,215.815 296.046 C 215.815 296.412,216.200 296.540,217.298 296.540 C 218.396 296.540,218.781 296.668,218.781 297.035 C 218.781 297.401,219.165 297.529,220.264 297.529 C 221.362 297.529,221.746 297.657,221.746 298.023 C 221.746 298.389,222.131 298.517,223.229 298.517 C 224.327 298.517,224.712 298.645,224.712 299.012 C 224.712 299.396,225.151 299.506,226.689 299.506 C 228.226 299.506,228.666 299.616,228.666 300.000 C 228.666 300.358,229.033 300.494,229.994 300.494 C 230.871 300.494,231.387 300.662,231.512 300.988 C 231.634 301.307,232.144 301.483,232.949 301.483 C 233.754 301.483,234.264 301.658,234.386 301.977 C 234.510 302.300,235.023 302.471,235.869 302.471 C 236.714 302.471,237.227 302.642,237.351 302.965 C 237.488 303.321,238.044 303.460,239.328 303.460 C 240.613 303.460,241.169 303.599,241.305 303.954 C 241.442 304.311,242.001 304.448,243.318 304.448 C 244.718 304.448,245.140 304.563,245.140 304.942 C 245.140 305.308,245.524 305.437,246.623 305.437 C 247.721 305.437,248.105 305.565,248.105 305.931 C 248.105 306.297,248.490 306.425,249.588 306.425 C 250.686 306.425,251.071 306.553,251.071 306.919 C 251.071 307.315,251.565 307.414,253.542 307.414 C 255.519 307.414,256.013 307.512,256.013 307.908 C 256.013 308.303,256.507 308.402,258.484 308.402 C 260.461 308.402,260.956 308.501,260.956 308.896 C 260.956 309.262,261.340 309.390,262.438 309.390 C 263.537 309.390,263.921 309.519,263.921 309.885 C 263.921 310.251,264.305 310.379,265.404 310.379 C 266.502 310.379,266.886 310.507,266.886 310.873 C 266.886 311.239,267.271 311.367,268.369 311.367 C 269.467 311.367,269.852 311.496,269.852 311.862 C 269.852 312.191,270.181 312.356,270.840 312.356 C 271.499 312.356,271.829 312.521,271.829 312.850 C 271.829 313.234,272.268 313.344,273.806 313.344 C 275.343 313.344,275.783 313.454,275.783 313.839 C 275.783 314.205,276.167 314.333,277.265 314.333 C 278.364 314.333,278.748 314.461,278.748 314.827 C 278.748 315.222,279.242 315.321,281.219 315.321 C 283.196 315.321,283.690 315.420,283.690 315.815 C 283.690 316.182,284.075 316.310,285.173 316.310 C 286.271 316.310,286.656 316.438,286.656 316.804 C 286.656 317.162,287.023 317.298,287.984 317.298 C 288.861 317.298,289.377 317.466,289.502 317.792 C 289.624 318.111,290.134 318.287,290.939 318.287 C 291.744 318.287,292.254 318.462,292.376 318.781 C 292.500 319.104,293.013 319.275,293.859 319.275 C 294.704 319.275,295.218 319.446,295.342 319.769 C 295.466 320.092,295.979 320.264,296.824 320.264 C 297.670 320.264,298.183 320.435,298.307 320.758 C 298.431 321.081,298.944 321.252,299.790 321.252 C 300.635 321.252,301.148 321.423,301.272 321.746 C 301.416 322.120,302.019 322.241,303.744 322.241 C 305.468 322.241,306.071 322.361,306.215 322.735 C 306.362 323.118,307.005 323.229,309.074 323.229 C 311.008 323.229,311.880 323.365,312.238 323.723 C 312.599 324.084,313.478 324.217,315.486 324.217 C 317.494 324.217,318.373 324.084,318.734 323.723 C 319.006 323.451,319.540 323.229,319.921 323.229 C 320.302 323.229,320.699 323.007,320.803 322.735 C 320.908 322.463,321.291 322.241,321.656 322.241 C 322.532 322.241,324.876 319.871,324.876 318.984 C 324.876 318.584,325.087 318.287,325.371 318.287 C 325.643 318.287,325.865 318.080,325.865 317.828 C 325.865 317.575,326.087 317.283,326.359 317.179 C 326.631 317.075,326.853 316.630,326.853 316.191 C 326.853 315.751,327.076 315.306,327.348 315.202 C 327.674 315.077,327.842 314.561,327.842 313.684 C 327.842 312.723,327.978 312.356,328.336 312.356 C 328.702 312.356,328.830 311.971,328.830 310.873 C 328.830 309.775,328.958 309.390,329.325 309.390 C 329.691 309.390,329.819 309.006,329.819 307.908 C 329.819 306.809,329.947 306.425,330.313 306.425 C 330.679 306.425,330.807 306.041,330.807 304.942 C 330.807 303.844,330.935 303.460,331.301 303.460 C 331.696 303.460,331.796 302.969,331.796 301.024 C 331.796 299.162,331.912 298.543,332.290 298.398 C 332.675 298.250,332.784 297.596,332.784 295.433 C 332.784 293.269,332.893 292.615,333.278 292.467 C 333.678 292.314,333.773 291.552,333.773 288.478 C 333.773 285.321,333.856 284.679,334.267 284.679 C 334.671 284.679,334.761 284.114,334.761 281.572 C 334.761 279.250,334.636 278.341,334.267 277.971 C 333.995 277.699,333.773 277.241,333.773 276.952 C 333.773 276.663,332.947 275.615,331.939 274.622 L 330.105 272.817 326.008 272.817 C 322.586 272.817,321.911 272.899,321.911 273.311 C 321.911 273.583,321.689 273.806,321.417 273.806 C 321.145 273.806,320.923 274.028,320.923 274.300 C 320.923 274.572,320.700 274.794,320.428 274.794 C 320.157 274.794,319.934 275.016,319.934 275.288 C 319.934 275.560,319.712 275.783,319.440 275.783 C 319.168 275.783,318.946 276.005,318.946 276.277 C 318.946 276.549,318.723 276.771,318.451 276.771 C 318.180 276.771,317.957 276.993,317.957 277.265 C 317.957 277.537,317.735 277.759,317.463 277.759 C 317.191 277.759,316.969 277.982,316.969 278.254 C 316.969 278.526,316.746 278.748,316.474 278.748 C 316.203 278.748,315.980 278.970,315.980 279.242 C 315.980 279.514,315.758 279.736,315.486 279.736 C 315.214 279.736,314.992 279.943,314.992 280.195 C 314.992 280.448,314.769 280.740,314.498 280.844 C 314.099 280.997,314.003 280.716,314.003 279.397 C 314.003 278.161,314.125 277.759,314.498 277.759 C 314.864 277.759,314.992 277.375,314.992 276.277 C 314.992 275.178,315.120 274.794,315.486 274.794 C 315.852 274.794,315.980 274.410,315.980 273.311 C 315.980 272.213,316.108 271.829,316.474 271.829 C 316.841 271.829,316.969 271.444,316.969 270.346 C 316.969 269.248,317.097 268.863,317.463 268.863 C 317.829 268.863,317.957 268.479,317.957 267.381 C 317.957 266.282,318.085 265.898,318.451 265.898 C 318.817 265.898,318.946 265.513,318.946 264.415 C 318.946 263.317,319.074 262.932,319.440 262.932 C 319.819 262.932,319.934 262.511,319.934 261.120 C 319.934 259.553,320.020 259.308,320.566 259.308 C 320.914 259.308,321.405 259.229,321.658 259.131 C 322.269 258.897,323.888 260.424,323.888 261.234 C 323.888 261.586,324.110 261.959,324.382 262.063 C 324.654 262.167,324.876 262.628,324.876 263.087 C 324.876 263.609,325.062 263.921,325.371 263.921 C 325.643 263.921,325.865 264.143,325.865 264.415 C 325.865 264.687,326.087 264.909,326.359 264.909 C 326.631 264.909,326.853 265.132,326.853 265.404 C 326.853 265.733,327.183 265.898,327.842 265.898 C 328.501 265.898,328.830 266.063,328.830 266.392 C 328.830 266.803,329.472 266.886,332.630 266.886 C 335.703 266.886,336.465 266.792,336.619 266.392 C 336.723 266.120,337.015 265.898,337.268 265.898 C 337.520 265.898,337.727 265.675,337.727 265.404 C 337.727 265.119,338.024 264.909,338.429 264.909 C 339.180 264.909,341.351 262.842,341.351 262.126 C 341.351 261.889,341.573 261.511,341.845 261.285 C 342.117 261.059,342.339 260.615,342.339 260.297 C 342.339 259.978,342.562 259.534,342.834 259.308 C 343.117 259.073,343.328 258.354,343.328 257.620 C 343.328 256.704,343.468 256.343,343.822 256.343 C 344.188 256.343,344.316 255.958,344.316 254.860 C 344.316 253.762,344.444 253.377,344.811 253.377 C 345.177 253.377,345.305 252.993,345.305 251.895 C 345.305 250.796,345.433 250.412,345.799 250.412 C 346.165 250.412,346.293 250.027,346.293 248.929 C 346.293 247.831,346.421 247.446,346.787 247.446 C 347.154 247.446,347.282 247.062,347.282 245.964 C 347.282 244.865,347.410 244.481,347.776 244.481 C 348.105 244.481,348.270 244.152,348.270 243.493 C 348.270 242.834,348.435 242.504,348.764 242.504 C 349.036 242.504,349.259 242.282,349.259 242.010 C 349.259 241.738,349.481 241.516,349.753 241.516 C 350.082 241.516,350.247 241.186,350.247 240.527 C 350.247 239.868,350.412 239.539,350.741 239.539 C 351.071 239.539,351.236 239.209,351.236 238.550 C 351.236 237.891,351.400 237.562,351.730 237.562 C 352.059 237.562,352.224 237.232,352.224 236.573 C 352.224 235.914,352.389 235.585,352.718 235.585 C 353.048 235.585,353.213 235.255,353.213 234.596 C 353.213 233.937,353.377 233.608,353.707 233.608 C 354.124 233.608,354.201 232.839,354.201 228.666 C 354.201 224.492,354.124 223.723,353.707 223.723 C 353.435 223.723,353.213 223.501,353.213 223.229 C 353.213 222.957,352.990 222.735,352.718 222.735 C 352.446 222.735,352.224 222.512,352.224 222.241 C 352.224 221.969,352.002 221.746,351.730 221.746 C 351.458 221.746,351.236 221.524,351.236 221.252 C 351.236 220.980,351.013 220.758,350.741 220.758 C 350.470 220.758,350.247 220.535,350.247 220.264 C 350.247 219.992,350.025 219.769,349.753 219.769 C 349.481 219.769,349.259 219.547,349.259 219.275 C 349.259 219.003,349.036 218.781,348.764 218.781 C 348.493 218.781,348.270 218.558,348.270 218.287 C 348.270 218.015,348.048 217.792,347.776 217.792 C 347.504 217.792,347.282 217.570,347.282 217.298 C 347.282 216.969,346.952 216.804,346.293 216.804 C 345.634 216.804,345.305 216.639,345.305 216.310 C 345.305 215.980,344.975 215.815,344.316 215.815 C 343.657 215.815,343.328 215.651,343.328 215.321 C 343.328 214.955,342.943 214.827,341.845 214.827 C 340.747 214.827,340.362 214.699,340.362 214.333 C 340.362 213.975,339.995 213.839,339.034 213.839 C 338.157 213.839,337.641 213.671,337.516 213.344 C 337.392 213.021,336.879 212.850,336.033 212.850 C 335.188 212.850,334.675 212.679,334.551 212.356 C 334.415 212.003,333.864 211.862,332.619 211.862 C 331.375 211.862,330.824 211.720,330.688 211.367 C 330.564 211.044,330.051 210.873,329.205 210.873 C 328.360 210.873,327.847 210.702,327.723 210.379 C 327.599 210.056,327.085 209.885,326.240 209.885 C 325.395 209.885,324.881 209.714,324.757 209.390 C 324.653 209.119,324.272 208.896,323.910 208.896 C 323.548 208.896,322.797 208.451,322.241 207.908 C 321.684 207.364,321.001 206.919,320.723 206.919 C 320.444 206.919,319.994 206.697,319.722 206.425 C 319.450 206.153,318.736 205.931,318.134 205.931 C 317.465 205.931,316.965 205.739,316.850 205.437 C 316.693 205.030,315.841 204.942,312.026 204.942 C 308.212 204.942,307.359 205.030,307.203 205.437 C 307.099 205.708,306.654 205.931,306.215 205.931 C 305.775 205.931,305.331 206.153,305.226 206.425 C 305.122 206.697,304.763 206.919,304.428 206.919 C 303.575 206.919,300.165 210.273,300.165 211.111 C 300.165 211.485,299.942 211.876,299.671 211.981 C 299.271 212.134,299.176 212.897,299.176 215.970 C 299.176 219.128,299.260 219.769,299.671 219.769 C 300.066 219.769,300.165 220.264,300.165 222.241 C 300.165 224.217,300.066 224.712,299.671 224.712 C 299.399 224.712,299.176 224.489,299.176 224.217 C 299.176 223.833,298.737 223.723,297.199 223.723 C 295.662 223.723,295.222 223.613,295.222 223.229 C 295.222 222.863,294.838 222.735,293.740 222.735 C 292.641 222.735,292.257 222.607,292.257 222.241 C 292.257 221.856,291.818 221.746,290.280 221.746 C 288.742 221.746,288.303 221.636,288.303 221.252 C 288.303 220.886,287.919 220.758,286.820 220.758 C 285.722 220.758,285.338 220.630,285.338 220.264 C 285.338 219.906,284.970 219.769,284.009 219.769 C 283.133 219.769,282.617 219.601,282.491 219.275 C 282.367 218.952,281.854 218.781,281.009 218.781 C 280.163 218.781,279.650 218.610,279.526 218.287 C 279.404 217.968,278.894 217.792,278.089 217.792 C 277.284 217.792,276.774 217.617,276.652 217.298 C 276.528 216.975,276.015 216.804,275.169 216.804 C 274.324 216.804,273.810 216.633,273.686 216.310 C 273.562 215.987,273.049 215.815,272.204 215.815 C 271.358 215.815,270.845 215.644,270.721 215.321 C 270.597 214.998,270.084 214.827,269.238 214.827 C 268.393 214.827,267.880 214.656,267.756 214.333 C 267.632 214.010,267.118 213.839,266.273 213.839 C 265.428 213.839,264.914 213.667,264.790 213.344 C 264.653 212.987,264.094 212.850,262.778 212.850 C 261.378 212.850,260.956 212.736,260.956 212.356 C 260.956 212.026,260.626 211.862,259.967 211.862 C 259.308 211.862,258.979 211.697,258.979 211.367 C 258.979 211.096,259.201 210.873,259.473 210.873 C 259.745 210.873,259.967 210.651,259.967 210.379 C 259.967 210.107,260.189 209.885,260.461 209.885 C 260.733 209.885,260.956 209.662,260.956 209.390 C 260.956 209.061,261.285 208.896,261.944 208.896 C 262.603 208.896,262.932 208.731,262.932 208.402 C 262.932 208.130,263.155 207.908,263.427 207.908 C 263.699 207.908,263.921 207.685,263.921 207.414 C 263.921 207.142,264.143 206.919,264.415 206.919 C 264.687 206.919,264.909 206.697,264.909 206.425 C 264.909 206.153,265.132 205.931,265.404 205.931 C 265.675 205.931,265.898 205.708,265.898 205.437 C 265.898 205.165,266.120 204.942,266.392 204.942 C 266.793 204.942,266.886 204.411,266.886 202.142 C 266.886 199.872,266.793 199.341,266.392 199.341 C 266.026 199.341,265.898 198.957,265.898 197.858 C 265.898 196.760,265.770 196.376,265.404 196.376 C 265.132 196.376,264.909 196.153,264.909 195.881 C 264.909 195.552,264.580 195.387,263.921 195.387 C 263.262 195.387,262.932 195.222,262.932 194.893 C 262.932 194.527,262.548 194.399,261.450 194.399 C 260.351 194.399,259.967 194.271,259.967 193.904 C 259.967 193.575,259.638 193.410,258.979 193.410 C 258.320 193.410,257.990 193.245,257.990 192.916 C 257.990 192.550,257.606 192.422,256.507 192.422 C 255.409 192.422,255.025 192.294,255.025 191.928 C 255.025 191.561,254.640 191.433,253.542 191.433 C 252.444 191.433,252.059 191.305,252.059 190.939 C 252.059 190.610,251.730 190.445,251.071 190.445 C 250.412 190.445,250.082 190.280,250.082 189.951 C 250.082 189.679,249.860 189.456,249.588 189.456 C 249.316 189.456,249.094 189.234,249.094 188.962 C 249.094 188.596,248.710 188.468,247.611 188.468 C 246.513 188.468,246.129 188.340,246.129 187.974 C 246.129 187.644,245.799 187.479,245.140 187.479 C 244.481 187.479,244.152 187.315,244.152 186.985 C 244.152 186.656,243.822 186.491,243.163 186.491 C 242.504 186.491,242.175 186.326,242.175 185.997 C 242.175 185.667,241.845 185.502,241.186 185.502 C 240.527 185.502,240.198 185.338,240.198 185.008 C 240.198 184.679,239.868 184.514,239.209 184.514 C 238.550 184.514,238.221 184.349,238.221 184.020 C 238.221 183.654,237.836 183.526,236.738 183.526 C 235.640 183.526,235.255 183.397,235.255 183.031 C 235.255 182.665,234.871 182.537,233.773 182.537 C 232.674 182.537,232.290 182.409,232.290 182.043 C 232.290 181.640,231.741 181.549,229.325 181.549 C 226.908 181.549,226.359 181.457,226.359 181.054 C 226.359 180.648,225.773 180.560,223.064 180.560 C 220.355 180.560,219.769 180.648,219.769 181.054 M314.003 282.208 C 314.003 282.479,313.781 282.702,313.509 282.702 C 313.237 282.702,313.015 282.479,313.015 282.208 C 313.015 281.936,313.237 281.713,313.509 281.713 C 313.781 281.713,314.003 281.936,314.003 282.208 " stroke="none" fill="#fcbc04" fill-rule="evenodd"></path><path id="path2" d="M133.114 46.293 C 133.114 46.689,132.619 46.787,130.643 46.787 C 128.666 46.787,128.171 46.886,128.171 47.282 C 128.171 47.692,127.530 47.776,124.372 47.776 C 121.299 47.776,120.536 47.870,120.383 48.270 C 120.226 48.678,119.362 48.764,115.451 48.764 C 111.455 48.764,110.708 48.842,110.708 49.259 C 110.708 49.643,110.269 49.753,108.731 49.753 C 107.194 49.753,106.755 49.863,106.755 50.247 C 106.755 50.613,106.370 50.741,105.272 50.741 C 104.174 50.741,103.789 50.869,103.789 51.236 C 103.789 51.565,103.460 51.730,102.801 51.730 C 102.142 51.730,101.812 51.895,101.812 52.224 C 101.812 52.496,101.590 52.718,101.318 52.718 C 100.217 52.718,100.642 60.012,101.798 60.971 C 102.334 61.416,102.779 62.113,102.787 62.521 C 102.795 62.954,103.006 63.262,103.295 63.262 C 103.567 63.262,103.789 63.484,103.789 63.756 C 103.789 64.028,104.012 64.250,104.283 64.250 C 104.555 64.250,104.778 64.473,104.778 64.745 C 104.778 65.016,105.000 65.239,105.272 65.239 C 105.544 65.239,105.766 65.461,105.766 65.733 C 105.766 66.063,106.096 66.227,106.755 66.227 C 107.414 66.227,107.743 66.392,107.743 66.722 C 107.743 66.993,107.965 67.216,108.237 67.216 C 108.509 67.216,108.731 67.438,108.731 67.710 C 108.731 68.040,109.061 68.204,109.720 68.204 C 110.379 68.204,110.708 68.369,110.708 68.699 C 110.708 68.970,110.931 69.193,111.203 69.193 C 111.474 69.193,111.697 69.415,111.697 69.687 C 111.697 69.959,111.919 70.181,112.191 70.181 C 112.463 70.181,112.685 70.404,112.685 70.675 C 112.685 70.947,112.908 71.170,113.180 71.170 C 113.509 71.170,113.674 71.499,113.674 72.158 C 113.674 72.817,113.839 73.147,114.168 73.147 C 114.440 73.147,114.662 73.369,114.662 73.641 C 114.662 73.970,114.333 74.135,113.674 74.135 C 113.015 74.135,112.685 74.300,112.685 74.629 C 112.685 74.987,112.318 75.124,111.357 75.124 C 110.480 75.124,109.964 75.292,109.839 75.618 C 109.715 75.941,109.202 76.112,108.356 76.112 C 107.511 76.112,106.998 76.283,106.874 76.606 C 106.737 76.962,106.181 77.100,104.897 77.100 C 103.612 77.100,103.056 77.239,102.920 77.595 C 102.769 77.988,102.063 78.089,99.460 78.089 C 96.857 78.089,96.151 78.190,96.001 78.583 C 95.837 79.010,94.138 79.077,83.490 79.077 L 71.170 79.077 71.170 75.618 C 71.170 72.762,71.256 72.158,71.664 72.158 C 71.936 72.158,72.158 71.936,72.158 71.664 C 72.158 71.392,72.381 71.170,72.652 71.170 C 72.924 71.170,73.147 70.947,73.147 70.675 C 73.147 70.404,73.369 70.181,73.641 70.181 C 73.913 70.181,74.135 69.959,74.135 69.687 C 74.135 69.415,74.357 69.193,74.629 69.193 C 74.901 69.193,75.124 68.970,75.124 68.699 C 75.124 68.427,75.346 68.204,75.618 68.204 C 75.890 68.204,76.112 67.982,76.112 67.710 C 76.112 67.438,76.334 67.216,76.606 67.216 C 76.915 67.216,77.100 66.903,77.100 66.382 C 77.100 65.923,77.323 65.462,77.595 65.358 C 77.867 65.254,78.089 64.829,78.089 64.415 C 78.089 64.001,78.311 63.577,78.583 63.472 C 78.983 63.319,79.077 62.557,79.077 59.483 C 79.077 56.326,78.994 55.684,78.583 55.684 C 78.254 55.684,78.089 55.354,78.089 54.695 C 78.089 54.036,77.924 53.707,77.595 53.707 C 77.323 53.707,77.100 53.484,77.100 53.213 C 77.100 52.941,76.878 52.718,76.606 52.718 C 76.334 52.718,76.112 52.496,76.112 52.224 C 76.112 51.952,75.890 51.730,75.618 51.730 C 75.346 51.730,75.124 51.507,75.124 51.236 C 75.124 50.869,74.739 50.741,73.641 50.741 C 72.543 50.741,72.158 50.613,72.158 50.247 C 72.158 49.863,71.719 49.753,70.181 49.753 C 68.644 49.753,68.204 49.643,68.204 49.259 C 68.204 48.829,66.740 48.764,57.002 48.764 C 47.263 48.764,45.799 48.829,45.799 49.259 C 45.799 49.625,45.415 49.753,44.316 49.753 C 43.218 49.753,42.834 49.881,42.834 50.247 C 42.834 50.659,42.175 50.741,38.880 50.741 C 35.585 50.741,34.926 50.824,34.926 51.236 C 34.926 51.565,34.596 51.730,33.937 51.730 C 33.278 51.730,32.949 51.895,32.949 52.224 C 32.949 52.590,32.565 52.718,31.466 52.718 C 30.368 52.718,29.984 52.846,29.984 53.213 C 29.984 53.597,29.544 53.707,28.007 53.707 C 26.469 53.707,26.030 53.817,26.030 54.201 C 26.030 54.473,25.807 54.695,25.535 54.695 C 25.264 54.695,25.041 54.918,25.041 55.189 C 25.041 55.461,24.819 55.684,24.547 55.684 C 24.275 55.684,24.053 55.906,24.053 56.178 C 24.053 56.507,23.723 56.672,23.064 56.672 C 22.405 56.672,22.076 56.837,22.076 57.166 C 22.076 57.438,21.853 57.661,21.582 57.661 C 21.215 57.661,21.087 58.045,21.087 59.143 C 21.087 60.242,20.959 60.626,20.593 60.626 C 20.236 60.626,20.099 60.992,20.099 61.944 C 20.099 62.896,20.236 63.262,20.593 63.262 C 20.923 63.262,21.087 63.591,21.087 64.250 C 21.087 64.909,21.252 65.239,21.582 65.239 C 22.303 65.239,22.303 70.115,21.582 70.392 C 21.152 70.556,21.087 72.565,21.087 85.702 C 21.087 98.924,21.025 100.824,20.593 100.824 C 20.160 100.824,20.099 103.058,20.099 118.956 C 20.099 134.770,20.036 137.112,19.605 137.278 C 19.192 137.436,19.110 138.404,19.110 143.163 C 19.110 147.922,19.029 148.890,18.616 149.048 C 17.960 149.300,17.960 150.906,18.616 150.906 C 18.982 150.906,19.110 151.290,19.110 152.389 C 19.110 153.487,19.239 153.871,19.605 153.871 C 19.934 153.871,20.099 154.201,20.099 154.860 C 20.099 155.519,20.264 155.848,20.593 155.848 C 20.865 155.848,21.087 156.071,21.087 156.343 C 21.087 156.614,21.310 156.837,21.582 156.837 C 21.853 156.837,22.076 157.059,22.076 157.331 C 22.076 157.642,22.389 157.825,22.921 157.825 C 23.386 157.825,24.024 157.963,24.338 158.131 C 24.734 158.343,25.334 158.248,26.287 157.821 C 28.258 156.938,32.620 156.582,38.880 156.793 C 48.521 157.117,61.229 156.762,63.097 156.117 C 64.917 155.489,69.009 154.947,70.840 155.091 C 73.195 155.278,76.771 152.705,76.771 150.824 C 76.771 148.084,74.326 142.733,71.764 139.868 C 66.272 133.726,67.316 125.599,74.037 122.164 C 81.747 118.222,99.610 118.722,105.238 123.036 C 109.591 126.373,107.837 135.546,102.438 137.682 C 102.147 137.797,100.607 139.113,99.015 140.607 L 96.120 143.323 96.341 145.220 C 96.725 148.500,98.014 148.908,108.072 148.927 C 115.061 148.941,125.003 149.480,126.359 149.919 C 127.286 150.219,128.515 150.110,136.339 149.035 C 137.946 148.814,146.945 149.528,147.446 149.916 C 147.628 150.056,148.284 150.280,148.905 150.413 C 150.006 150.649,152.374 151.946,154.366 153.405 C 155.548 154.271,157.342 154.716,157.649 154.220 C 157.767 154.028,158.300 153.871,158.833 153.871 C 159.475 153.871,159.802 153.705,159.802 153.377 C 159.802 153.105,160.036 152.883,160.322 152.883 C 160.772 152.883,160.835 152.295,160.790 148.517 C 160.571 129.982,161.390 115.249,162.712 113.927 C 162.924 113.715,163.097 113.382,163.097 113.187 C 163.097 112.554,165.034 110.692,166.198 110.205 C 169.809 108.697,173.152 109.376,177.999 112.605 C 180.842 114.498,181.972 114.536,184.608 112.824 C 185.795 112.054,186.491 111.374,186.491 110.984 C 186.491 110.645,186.873 109.294,187.339 107.984 C 187.806 106.673,188.394 104.193,188.647 102.471 C 191.565 82.582,190.247 77.759,181.893 77.759 L 178.856 77.759 176.825 79.690 C 174.369 82.023,172.306 82.814,166.870 83.507 C 164.707 83.782,162.261 82.660,160.211 80.450 C 158.540 78.649,156.178 75.201,156.178 74.562 C 156.178 74.392,155.739 73.442,155.203 72.452 C 153.918 70.079,153.562 66.290,154.370 63.591 C 154.669 62.595,155.036 60.815,155.185 59.638 C 155.335 58.460,155.607 57.051,155.789 56.507 C 157.297 52.018,157.474 49.753,156.316 49.753 C 156.059 49.753,155.848 49.530,155.848 49.259 C 155.848 48.929,155.519 48.764,154.860 48.764 C 154.201 48.764,153.871 48.600,153.871 48.270 C 153.871 47.904,153.487 47.776,152.389 47.776 C 151.290 47.776,150.906 47.648,150.906 47.282 C 150.906 46.870,150.247 46.787,146.952 46.787 C 143.657 46.787,142.998 46.705,142.998 46.293 C 142.998 45.876,142.230 45.799,138.056 45.799 C 133.882 45.799,133.114 45.876,133.114 46.293 " stroke="none" fill="#4c748b" fill-rule="evenodd"></path><path id="path3" d="M210.007 18.609 C 209.867 18.973,209.323 19.110,208.027 19.110 C 206.742 19.110,206.186 19.249,206.050 19.605 C 205.932 19.911,205.431 20.099,204.732 20.099 C 204.033 20.099,203.532 20.287,203.414 20.593 C 203.310 20.865,203.013 21.087,202.755 21.087 C 202.497 21.087,202.200 21.310,202.096 21.582 C 201.992 21.853,201.700 22.076,201.447 22.076 C 201.195 22.076,200.988 22.298,200.988 22.570 C 200.988 22.842,200.766 23.064,200.494 23.064 C 200.222 23.064,200.000 23.218,200.000 23.405 C 200.000 23.592,199.555 24.180,199.012 24.712 C 198.468 25.243,198.023 25.964,198.023 26.313 C 198.023 26.662,197.810 27.029,197.550 27.129 C 196.929 27.367,196.840 35.947,197.460 35.825 C 197.670 35.783,197.894 36.120,197.956 36.573 C 198.019 37.026,198.258 37.545,198.488 37.727 C 198.718 37.908,198.983 38.464,199.078 38.962 L 199.250 39.868 191.246 39.868 C 184.572 39.868,183.161 39.950,182.749 40.362 C 182.342 40.770,181.062 40.857,175.477 40.857 C 169.671 40.857,168.699 40.928,168.699 41.351 C 168.699 41.735,168.259 41.845,166.722 41.845 C 165.184 41.845,164.745 41.955,164.745 42.339 C 164.745 42.669,164.415 42.834,163.756 42.834 C 163.097 42.834,162.768 42.998,162.768 43.328 C 162.768 43.615,162.469 43.822,162.052 43.822 C 160.904 43.822,157.825 47.233,157.825 48.506 C 157.825 49.073,157.580 49.807,157.280 50.139 C 156.954 50.499,156.888 50.741,157.115 50.741 C 157.683 50.741,157.600 54.103,157.012 54.879 C 156.746 55.231,156.518 56.038,156.506 56.672 C 156.494 57.306,156.272 58.196,156.013 58.649 C 155.754 59.102,155.532 60.288,155.520 61.285 C 155.507 62.336,155.295 63.366,155.014 63.737 C 154.689 64.167,154.530 65.184,154.530 66.841 C 154.530 69.471,155.234 71.359,158.433 77.318 C 159.530 79.361,163.011 82.371,164.316 82.404 C 168.408 82.509,171.536 82.284,172.019 81.850 C 172.305 81.594,172.851 81.384,173.231 81.384 C 173.612 81.384,174.146 81.161,174.418 80.890 C 174.689 80.618,174.999 80.395,175.106 80.395 C 175.212 80.395,175.939 79.728,176.720 78.913 C 177.526 78.072,178.442 77.430,178.837 77.430 C 179.220 77.430,179.624 77.282,179.736 77.100 C 179.986 76.697,184.405 76.658,184.652 77.058 C 184.750 77.216,185.268 77.433,185.804 77.540 C 187.014 77.782,189.703 80.418,189.981 81.634 C 190.095 82.131,190.394 83.172,190.646 83.949 C 191.156 85.522,191.211 89.250,190.776 92.751 C 190.619 94.020,190.327 96.466,190.128 98.188 C 189.929 99.909,189.622 101.575,189.447 101.890 C 189.271 102.205,189.126 103.243,189.125 104.197 C 189.124 105.150,188.915 106.329,188.662 106.815 C 188.408 107.301,188.101 108.152,187.979 108.705 C 187.858 109.259,187.621 109.797,187.454 109.900 C 187.287 110.004,187.150 110.504,187.150 111.013 C 187.150 111.731,186.838 112.148,185.750 112.887 C 184.979 113.409,184.275 113.915,184.185 114.011 C 182.896 115.378,178.583 115.120,178.583 113.676 C 178.583 113.533,178.238 113.329,177.816 113.223 C 177.394 113.117,176.645 112.656,176.152 112.199 C 175.658 111.742,174.920 111.367,174.511 111.367 C 174.102 111.367,173.479 111.150,173.127 110.884 C 172.128 110.128,167.482 110.208,166.278 111.002 C 164.394 112.243,162.438 115.008,162.438 116.428 C 162.438 116.826,162.219 117.465,161.950 117.848 C 161.540 118.434,161.443 121.080,161.340 134.478 C 161.272 143.242,161.105 150.968,160.968 151.647 C 160.762 152.667,160.812 152.883,161.249 152.883 C 161.619 152.883,161.779 153.183,161.779 153.871 C 161.779 154.530,161.944 154.860,162.273 154.860 C 162.545 154.860,162.768 155.082,162.768 155.354 C 162.768 155.626,162.990 155.848,163.262 155.848 C 163.534 155.848,163.756 156.071,163.756 156.343 C 163.756 156.614,163.963 156.837,164.215 156.837 C 164.468 156.837,164.759 157.059,164.864 157.331 C 164.968 157.603,165.413 157.825,165.852 157.825 C 166.292 157.825,166.736 158.048,166.841 158.320 C 167.002 158.741,168.251 158.814,175.278 158.814 C 181.977 158.814,183.526 158.897,183.526 159.258 C 183.526 159.582,184.150 159.721,185.832 159.770 C 187.726 159.825,188.138 159.746,188.138 159.325 C 188.138 158.895,188.690 158.814,191.598 158.814 C 194.454 158.814,195.058 158.728,195.058 158.320 C 195.058 157.990,195.387 157.825,196.046 157.825 C 196.690 157.825,197.035 157.659,197.035 157.348 C 197.035 156.997,197.539 156.843,198.929 156.771 C 200.229 156.703,200.798 156.543,200.741 156.260 C 200.680 155.953,201.433 155.855,203.707 155.874 C 205.383 155.889,206.569 155.975,206.343 156.067 C 206.100 156.164,205.931 156.832,205.931 157.688 C 205.931 158.677,205.799 159.117,205.519 159.061 C 205.220 159.001,205.081 159.770,205.012 161.862 C 204.932 164.278,204.999 164.745,205.424 164.745 C 205.817 164.745,205.931 165.142,205.931 166.522 C 205.931 167.797,206.070 168.352,206.425 168.488 C 206.697 168.592,206.919 168.905,206.919 169.182 C 206.919 169.460,207.068 169.687,207.249 169.687 C 207.676 169.687,208.896 170.907,208.896 171.334 C 208.896 171.516,209.044 171.664,209.226 171.664 C 209.653 171.664,210.873 172.884,210.873 173.311 C 210.873 173.493,211.323 173.641,211.872 173.641 C 212.456 173.641,212.950 173.846,213.060 174.135 C 213.165 174.407,213.589 174.629,214.003 174.629 C 214.418 174.629,214.842 174.852,214.946 175.124 C 215.072 175.451,215.589 175.618,216.474 175.618 C 217.369 175.618,217.877 175.784,218.006 176.119 C 218.286 176.850,232.796 176.820,233.206 176.089 C 233.394 175.752,234.124 175.602,235.686 175.579 C 237.142 175.557,237.982 175.397,238.142 175.112 C 238.323 174.790,239.680 174.657,243.447 174.594 C 247.099 174.532,248.629 174.388,248.942 174.075 C 249.181 173.836,249.758 173.641,250.224 173.641 C 250.757 173.641,251.071 173.458,251.071 173.147 C 251.071 172.855,251.375 172.650,251.812 172.647 C 252.583 172.641,254.036 171.363,254.036 170.692 C 254.036 170.480,254.172 170.391,254.339 170.494 C 254.505 170.597,254.739 170.236,254.859 169.692 C 254.978 169.148,255.298 168.578,255.569 168.427 C 256.159 168.097,256.106 158.309,255.512 157.895 C 255.327 157.766,254.997 157.253,254.778 156.755 L 254.380 155.848 260.633 155.848 C 265.894 155.848,266.886 155.925,266.886 156.329 C 266.886 156.736,268.002 156.810,274.135 156.810 C 280.269 156.810,281.384 156.736,281.384 156.329 C 281.384 155.943,281.970 155.848,284.349 155.848 C 286.766 155.848,287.315 155.757,287.315 155.354 C 287.315 155.025,287.644 154.860,288.303 154.860 C 288.962 154.860,289.292 154.695,289.292 154.366 C 289.292 154.036,289.621 153.871,290.280 153.871 C 290.939 153.871,291.269 153.707,291.269 153.377 C 291.269 153.105,291.491 152.883,291.763 152.883 C 292.035 152.883,292.257 152.661,292.257 152.389 C 292.257 152.117,292.462 151.895,292.713 151.895 C 292.963 151.895,293.250 151.583,293.350 151.202 C 293.449 150.821,293.689 150.608,293.882 150.728 C 294.076 150.847,294.234 150.714,294.234 150.431 C 294.234 150.149,294.456 149.918,294.728 149.918 C 295.058 149.918,295.222 149.588,295.222 148.929 C 295.222 148.270,295.387 147.941,295.717 147.941 C 295.988 147.941,296.211 147.718,296.211 147.446 C 296.211 147.175,296.433 146.952,296.705 146.952 C 297.089 146.952,297.199 146.517,297.199 145.011 C 297.199 143.589,297.332 143.018,297.694 142.879 C 298.108 142.720,298.188 141.724,298.188 136.738 C 298.188 131.752,298.108 130.756,297.694 130.597 C 297.320 130.454,297.199 129.850,297.199 128.126 C 297.199 126.402,297.079 125.798,296.705 125.655 C 296.384 125.532,296.211 125.020,296.211 124.199 C 296.211 123.401,296.023 122.827,295.703 122.648 C 295.292 122.418,295.214 121.787,295.292 119.306 L 295.387 116.248 296.263 116.938 C 296.744 117.317,297.579 117.628,298.117 117.628 C 298.655 117.628,299.293 117.865,299.534 118.156 C 300.031 118.755,303.697 118.639,304.085 118.011 C 304.202 117.822,305.295 117.635,306.515 117.596 C 308.114 117.544,308.731 117.401,308.731 117.082 C 308.731 116.796,309.139 116.639,309.885 116.639 C 310.690 116.639,311.038 116.490,311.038 116.145 C 311.038 115.873,311.305 115.651,311.631 115.651 C 312.390 115.651,313.015 115.026,313.015 114.267 C 313.015 113.941,313.237 113.674,313.509 113.674 C 313.781 113.674,314.003 113.447,314.003 113.169 C 314.003 112.892,314.226 112.579,314.498 112.475 C 314.929 112.309,314.992 109.733,314.992 92.047 C 314.992 74.361,314.929 71.784,314.498 71.618 C 314.142 71.482,314.003 70.926,314.003 69.641 C 314.003 68.357,313.864 67.801,313.509 67.664 C 313.237 67.560,313.015 67.214,313.015 66.896 C 313.015 65.688,309.622 62.603,308.293 62.603 C 307.438 62.603,307.084 62.458,307.084 62.109 C 307.084 61.729,306.662 61.614,305.261 61.614 C 303.945 61.614,303.386 61.752,303.249 62.109 C 303.110 62.471,302.540 62.603,301.118 62.603 C 299.740 62.603,299.200 62.723,299.259 63.015 C 299.308 63.262,298.910 63.468,298.264 63.530 C 297.672 63.587,297.268 63.765,297.367 63.926 C 297.466 64.086,297.247 64.378,296.879 64.575 C 296.259 64.907,296.211 64.837,296.211 63.603 C 296.211 62.641,296.347 62.273,296.705 62.273 C 297.113 62.273,297.199 61.669,297.199 58.814 C 297.199 55.958,297.286 55.354,297.694 55.354 C 298.001 55.354,298.188 55.043,298.188 54.530 C 298.188 54.018,298.001 53.707,297.694 53.707 C 297.294 53.707,297.199 53.180,297.199 50.941 C 297.199 48.787,297.090 48.134,296.705 47.986 C 296.433 47.882,296.211 47.437,296.211 46.998 C 296.211 46.558,295.988 46.114,295.717 46.009 C 295.445 45.905,295.222 45.593,295.222 45.315 C 295.222 45.038,295.000 44.811,294.728 44.811 C 294.445 44.811,294.234 44.514,294.234 44.116 C 294.234 42.677,290.983 39.997,289.129 39.908 C 288.107 39.859,287.383 39.650,287.218 39.355 C 286.993 38.952,284.654 38.880,271.812 38.880 C 259.876 38.880,256.690 38.793,256.755 38.468 C 256.811 38.183,256.123 37.998,254.530 37.867 C 253.262 37.763,252.409 37.652,252.636 37.620 C 252.862 37.588,253.048 37.191,253.048 36.738 C 253.048 36.226,253.234 35.914,253.542 35.914 C 253.906 35.914,254.036 35.534,254.036 34.467 C 254.036 33.484,254.195 32.959,254.530 32.830 C 254.875 32.697,255.023 32.164,255.020 31.065 C 255.015 29.157,254.724 27.950,254.328 28.194 C 254.168 28.294,254.036 27.847,254.036 27.202 C 254.036 26.380,253.889 26.030,253.542 26.030 C 253.118 26.030,253.014 25.782,253.056 24.868 C 253.072 24.514,251.287 23.064,250.834 23.064 C 250.576 23.064,250.142 22.842,249.871 22.570 C 249.599 22.298,248.932 22.076,248.388 22.076 C 247.844 22.076,247.177 21.853,246.905 21.582 C 246.612 21.289,245.807 21.087,244.928 21.087 C 244.050 21.087,243.244 20.886,242.951 20.593 C 242.679 20.321,242.012 20.099,241.469 20.099 C 240.925 20.099,240.258 19.876,239.986 19.605 C 239.693 19.312,238.888 19.110,238.009 19.110 C 237.150 19.110,236.324 18.908,236.047 18.631 C 235.309 17.893,210.289 17.872,210.007 18.609 " stroke="none" fill="#b4e464" fill-rule="evenodd"></path><path id="path4" d="M157.227 51.356 C 157.172 52.059,156.708 53.715,155.784 56.507 C 155.604 57.051,155.335 58.460,155.185 59.638 C 155.036 60.815,154.669 62.595,154.370 63.591 C 153.562 66.290,153.918 70.079,155.203 72.452 C 155.739 73.442,156.178 74.392,156.178 74.562 C 156.178 75.201,158.540 78.649,160.211 80.450 C 162.261 82.660,164.707 83.782,166.870 83.507 C 172.306 82.814,174.369 82.023,176.825 79.690 L 178.856 77.759 181.893 77.759 C 190.247 77.759,191.565 82.582,188.647 102.471 C 188.394 104.193,187.806 106.673,187.339 107.984 C 186.873 109.294,186.491 110.645,186.491 110.984 C 186.491 111.374,185.795 112.054,184.608 112.824 C 181.972 114.536,180.842 114.498,177.999 112.605 C 172.112 108.684,166.258 108.417,163.870 111.960 C 162.986 113.271,162.489 114.106,162.262 114.662 C 162.151 114.934,161.849 115.643,161.590 116.239 C 161.213 117.106,161.118 119.616,161.110 128.924 C 161.104 135.306,160.951 141.639,160.769 142.998 C 160.404 145.717,160.690 151.265,161.157 150.528 C 161.312 150.283,161.447 142.965,161.455 134.267 C 161.468 120.888,161.545 118.353,161.954 117.812 C 162.221 117.460,162.438 116.842,162.438 116.438 C 162.438 112.360,169.931 108.466,173.127 110.884 C 173.479 111.150,174.102 111.367,174.511 111.367 C 174.920 111.367,175.658 111.742,176.152 112.199 C 176.645 112.656,177.394 113.117,177.816 113.223 C 178.238 113.329,178.583 113.533,178.583 113.676 C 178.583 115.120,182.896 115.378,184.185 114.011 C 184.275 113.915,184.979 113.409,185.750 112.887 C 186.838 112.148,187.150 111.731,187.150 111.013 C 187.150 110.504,187.287 110.004,187.454 109.900 C 187.621 109.797,187.858 109.259,187.979 108.705 C 188.101 108.152,188.408 107.301,188.662 106.815 C 188.915 106.329,189.124 105.150,189.125 104.197 C 189.126 103.243,189.271 102.205,189.447 101.890 C 189.622 101.575,189.929 99.909,190.128 98.188 C 190.327 96.466,190.619 94.020,190.776 92.751 C 191.211 89.250,191.156 85.522,190.646 83.949 C 190.394 83.172,190.095 82.131,189.981 81.634 C 189.703 80.418,187.014 77.782,185.804 77.540 C 185.268 77.433,184.750 77.216,184.652 77.058 C 184.405 76.658,179.986 76.697,179.736 77.100 C 179.624 77.282,179.220 77.430,178.837 77.430 C 178.442 77.430,177.526 78.072,176.720 78.913 C 175.939 79.728,175.212 80.395,175.106 80.395 C 174.999 80.395,174.689 80.618,174.418 80.890 C 174.146 81.161,173.612 81.384,173.231 81.384 C 172.851 81.384,172.305 81.594,172.019 81.850 C 171.536 82.284,168.408 82.509,164.316 82.404 C 163.011 82.371,159.530 79.361,158.433 77.318 C 155.234 71.359,154.530 69.471,154.530 66.841 C 154.530 65.184,154.689 64.167,155.014 63.737 C 155.295 63.366,155.507 62.336,155.520 61.285 C 155.532 60.288,155.754 59.102,156.013 58.649 C 156.272 58.196,156.489 57.338,156.496 56.743 C 156.502 56.148,156.738 55.309,157.020 54.878 C 157.372 54.341,157.494 53.546,157.410 52.336 C 157.343 51.369,157.261 50.927,157.227 51.356 " stroke="none" fill="#9ccc74" fill-rule="evenodd"></path></g></svg>