<svg id="svg" version="1.1" xmlns="http://www.w3.org/2000/svg" xmlns:xlink="http://www.w3.org/1999/xlink" width="400" height="462.30529595015577" viewBox="0, 0, 400,462.30529595015577"><g id="svgg"><path id="path0" d="M237.200 227.996 C 237.200 228.444,236.934 228.800,236.600 228.800 C 236.270 228.800,236.000 229.140,236.000 229.555 C 236.000 229.970,235.136 231.230,234.080 232.355 L 232.159 234.400 229.329 234.400 C 227.300 234.400,226.357 234.230,226.000 233.800 C 225.370 233.041,223.636 233.047,222.624 233.813 C 221.523 234.645,202.109 234.679,200.480 233.851 C 199.886 233.549,197.600 233.213,195.400 233.104 C 193.200 232.995,190.917 232.678,190.326 232.400 C 189.460 231.993,188.687 231.995,186.326 232.410 C 184.717 232.693,181.747 232.998,179.727 233.089 C 177.190 233.203,175.906 233.431,175.578 233.827 C 174.992 234.533,168.801 234.641,168.117 233.957 C 167.793 233.633,167.046 233.751,165.337 234.396 C 162.252 235.559,158.000 235.148,158.000 233.687 C 158.000 233.527,157.482 233.166,156.848 232.885 C 155.266 232.185,145.354 232.372,145.500 233.100 C 145.579 233.494,142.024 233.600,128.787 233.600 C 114.212 233.600,111.944 233.680,111.745 234.200 C 111.545 234.720,109.263 234.800,94.570 234.800 C 79.672 234.800,77.653 234.728,77.855 234.200 C 78.055 233.679,77.005 233.600,69.843 233.600 C 63.462 233.600,61.623 233.713,61.700 234.100 C 61.757 234.383,61.313 234.656,60.676 234.729 C 60.058 234.800,59.454 235.115,59.334 235.429 C 59.213 235.743,58.864 236.000,58.557 236.000 C 58.251 236.000,58.000 236.270,58.000 236.600 C 58.000 237.000,57.600 237.200,56.800 237.200 C 56.000 237.200,55.600 237.400,55.600 237.800 C 55.600 238.130,55.330 238.400,55.000 238.400 C 54.670 238.400,54.400 238.649,54.400 238.953 C 54.400 239.258,54.034 239.602,53.586 239.720 C 52.962 239.883,52.816 240.174,52.960 240.966 C 53.095 241.711,52.926 242.118,52.358 242.422 C 51.337 242.969,51.224 253.200,52.240 253.200 C 52.854 253.200,52.910 253.744,52.880 259.345 C 52.864 262.516,52.943 262.912,53.631 263.092 C 54.338 263.277,54.400 263.696,54.400 268.247 C 54.400 272.383,54.499 273.200,55.000 273.200 C 55.455 273.200,55.600 273.694,55.600 275.243 C 55.600 276.894,55.715 277.241,56.200 277.055 C 56.608 276.899,56.800 277.077,56.800 277.613 C 56.800 278.046,56.935 278.379,57.100 278.353 C 57.917 278.224,58.355 278.451,58.178 278.912 C 58.054 279.237,58.364 279.456,59.027 279.510 C 60.310 279.617,60.883 279.943,60.598 280.404 C 60.477 280.599,65.248 280.768,71.399 280.787 C 80.933 280.817,82.448 280.740,82.651 280.211 C 82.817 279.778,83.456 279.600,84.843 279.600 L 86.800 279.600 86.800 281.213 C 86.800 282.277,87.004 282.903,87.400 283.055 C 87.883 283.241,88.000 284.143,88.000 287.686 C 88.000 291.432,88.089 292.051,88.600 291.855 C 89.088 291.668,89.200 292.029,89.200 293.784 C 89.200 295.170,89.415 296.158,89.800 296.543 C 90.130 296.873,90.400 297.436,90.400 297.795 C 90.400 298.154,90.568 298.344,90.772 298.217 C 91.253 297.920,91.582 298.469,91.687 299.745 C 91.733 300.304,91.851 300.682,91.949 300.584 C 92.209 300.324,93.221 301.243,93.024 301.560 C 92.933 301.709,93.311 301.868,93.865 301.914 C 95.132 302.018,95.679 302.348,95.383 302.828 C 95.252 303.039,96.029 303.200,97.176 303.200 C 98.708 303.200,99.200 303.346,99.200 303.800 C 99.200 304.305,100.089 304.400,104.800 304.400 C 109.511 304.400,110.400 304.495,110.400 305.000 C 110.400 305.444,110.867 305.600,112.200 305.600 C 113.533 305.600,114.000 305.756,114.000 306.200 C 114.000 306.530,114.270 306.800,114.600 306.800 C 114.930 306.800,115.200 306.973,115.200 307.185 C 115.200 307.674,118.340 310.800,118.832 310.800 C 119.034 310.800,119.200 311.070,119.200 311.400 C 119.200 311.730,119.470 312.000,119.800 312.000 C 120.200 312.000,120.400 312.400,120.400 313.200 C 120.400 314.000,120.600 314.400,121.000 314.400 C 121.407 314.400,121.600 314.808,121.600 315.669 C 121.600 316.366,121.864 317.229,122.187 317.586 C 122.510 317.943,122.819 318.812,122.872 319.518 C 122.928 320.246,123.193 320.800,123.485 320.800 C 123.859 320.800,124.000 321.620,124.000 323.800 C 124.000 326.200,124.120 326.800,124.600 326.800 C 125.099 326.800,125.675 348.592,125.247 351.300 C 125.221 351.465,125.470 351.600,125.800 351.600 C 126.306 351.600,126.400 352.507,126.400 357.367 C 126.400 363.155,126.577 364.585,127.242 364.174 C 127.444 364.049,127.600 365.866,127.600 368.357 C 127.600 371.552,127.457 372.848,127.077 373.080 C 126.534 373.413,126.517 373.534,126.444 377.800 L 126.400 380.400 120.200 380.400 C 114.956 380.400,114.000 380.492,114.000 381.000 C 114.000 381.400,113.600 381.600,112.800 381.600 C 112.000 381.600,111.600 381.800,111.600 382.200 C 111.600 382.530,111.330 382.800,111.000 382.800 C 110.670 382.800,110.400 383.070,110.400 383.400 C 110.400 383.730,110.220 384.023,110.000 384.050 C 109.780 384.078,109.420 384.145,109.200 384.200 C 108.980 384.255,108.620 384.322,108.400 384.350 C 108.180 384.378,108.000 384.670,108.000 385.000 C 108.000 385.339,107.642 385.600,107.176 385.600 C 106.695 385.600,106.462 385.777,106.617 386.027 C 106.762 386.262,106.501 386.553,106.034 386.675 C 105.568 386.797,105.211 387.100,105.241 387.348 C 105.398 388.668,105.156 389.558,104.688 389.378 C 104.363 389.254,104.144 389.564,104.090 390.227 C 103.989 391.436,103.662 392.085,103.272 391.847 C 103.123 391.756,102.949 393.643,102.886 396.040 C 102.789 399.772,102.863 400.400,103.396 400.400 C 103.940 400.400,104.006 401.213,103.910 406.700 C 103.836 410.966,103.660 412.975,103.365 412.922 C 103.097 412.873,102.899 413.794,102.849 415.322 C 102.795 416.945,102.566 417.953,102.184 418.244 C 101.320 418.901,101.335 426.400,102.200 426.400 C 102.764 426.400,102.990 427.106,102.821 428.340 C 102.778 428.650,102.940 428.761,103.200 428.600 C 103.468 428.434,103.743 428.662,103.872 429.155 C 103.993 429.615,104.205 429.926,104.345 429.847 C 104.485 429.767,104.960 430.067,105.400 430.513 C 105.840 430.958,105.930 431.176,105.600 430.997 C 105.265 430.816,105.139 430.825,105.315 431.018 C 105.488 431.208,106.118 431.429,106.714 431.509 C 107.311 431.589,107.943 431.912,108.119 432.227 C 108.303 432.555,109.042 432.800,109.848 432.800 C 110.623 432.800,111.527 433.070,111.857 433.400 C 112.952 434.495,154.452 434.256,153.774 433.158 C 153.649 432.955,155.524 432.800,158.096 432.800 C 161.177 432.800,162.813 432.639,163.179 432.300 C 163.616 431.894,163.663 431.913,163.429 432.400 C 163.236 432.802,163.325 432.776,163.698 432.323 C 164.141 431.784,165.090 431.620,168.327 431.523 C 171.251 431.435,172.399 431.259,172.399 430.900 C 172.400 430.503,180.307 430.400,210.600 430.400 C 243.268 430.400,248.800 430.482,248.800 430.966 C 248.800 431.375,249.328 431.532,250.700 431.532 C 272.835 431.527,276.000 431.611,276.000 432.200 C 276.000 433.088,290.193 433.098,290.690 432.211 C 290.967 431.716,291.887 431.370,293.300 431.230 C 293.465 431.213,293.555 430.975,293.500 430.700 C 293.438 430.391,293.745 430.248,294.300 430.325 C 294.795 430.394,295.200 430.248,295.200 430.002 C 295.200 429.755,295.380 429.664,295.600 429.800 C 295.820 429.936,296.000 429.767,296.000 429.424 C 296.000 429.081,296.270 428.800,296.600 428.800 C 297.000 428.800,297.200 428.400,297.200 427.600 C 297.200 426.800,297.400 426.400,297.800 426.400 C 298.130 426.400,298.400 426.130,298.400 425.800 C 298.400 425.470,298.670 425.200,299.000 425.200 C 299.444 425.200,299.600 424.733,299.600 423.400 C 299.600 422.067,299.756 421.600,300.200 421.600 C 300.671 421.600,300.800 421.049,300.800 419.043 C 300.800 417.139,300.953 416.427,301.400 416.255 C 301.916 416.057,302.000 414.213,302.000 403.041 C 302.000 392.033,301.909 389.966,301.400 389.457 C 301.070 389.127,300.798 388.619,300.795 388.329 C 300.792 388.038,299.894 386.810,298.800 385.600 C 297.706 384.390,296.808 383.265,296.805 383.100 C 296.802 382.935,296.271 382.800,295.624 382.800 C 294.977 382.800,294.319 382.592,294.162 382.338 C 293.970 382.028,294.060 381.983,294.438 382.202 C 294.747 382.382,294.860 382.375,294.690 382.187 C 294.519 382.000,293.979 381.789,293.490 381.718 C 292.090 381.518,291.531 381.235,291.769 380.850 C 291.890 380.654,290.436 380.468,288.537 380.436 C 285.064 380.376,284.225 380.207,284.579 379.634 C 284.685 379.463,283.953 379.405,282.953 379.505 C 281.953 379.604,279.979 379.562,278.567 379.411 L 276.000 379.136 276.000 374.211 C 276.000 370.202,276.112 369.243,276.600 369.055 C 277.072 368.874,277.200 368.055,277.200 365.213 C 277.200 362.268,277.311 361.600,277.800 361.600 C 278.320 361.600,278.400 360.022,278.400 349.800 C 278.400 339.578,278.480 338.000,279.000 338.000 C 279.518 338.000,279.600 336.556,279.600 327.400 C 279.600 318.244,279.682 316.800,280.200 316.800 C 280.644 316.800,280.800 316.333,280.800 315.000 C 280.800 313.484,280.923 313.200,281.577 313.200 C 282.140 313.200,282.311 312.979,282.199 312.396 C 281.811 310.382,283.506 309.506,287.766 309.517 C 291.248 309.526,291.716 309.444,291.886 308.791 C 292.000 308.359,292.311 308.144,292.642 308.272 C 293.535 308.614,295.999 308.017,295.894 307.483 C 295.833 307.170,296.504 306.956,297.797 306.874 C 298.896 306.805,300.066 306.502,300.398 306.202 C 300.730 305.902,301.811 305.598,302.801 305.528 C 303.976 305.444,304.565 305.227,304.500 304.900 C 304.409 304.445,305.420 304.203,306.706 304.372 C 306.985 304.408,307.165 304.294,307.106 304.119 C 306.929 303.586,308.617 302.133,309.742 301.850 C 310.324 301.704,310.800 301.408,310.800 301.192 C 310.800 300.977,311.070 300.800,311.400 300.800 C 311.730 300.800,312.000 300.530,312.000 300.200 C 312.000 299.870,312.270 299.600,312.600 299.600 C 313.019 299.600,313.200 299.178,313.200 298.200 C 313.200 297.052,313.349 296.800,314.025 296.800 C 314.571 296.800,314.826 296.563,314.779 296.100 C 314.649 294.819,314.795 294.400,315.372 294.400 C 315.850 294.400,315.951 292.991,315.984 285.922 C 316.006 281.259,316.084 277.383,316.157 277.309 C 316.231 277.236,319.826 277.164,324.145 277.149 C 330.296 277.128,332.000 277.010,332.000 276.604 C 332.000 275.880,332.695 275.699,334.942 275.840 C 336.590 275.943,336.916 275.843,337.089 275.181 C 337.232 274.634,337.639 274.400,338.447 274.400 C 339.205 274.400,339.600 274.195,339.600 273.800 C 339.600 273.470,339.870 273.200,340.200 273.200 C 340.530 273.200,340.800 272.930,340.800 272.600 C 340.800 272.270,341.070 272.000,341.400 272.000 C 341.800 272.000,342.000 271.600,342.000 270.800 C 342.000 270.045,342.205 269.600,342.553 269.600 C 342.858 269.600,343.206 269.222,343.326 268.760 C 343.447 268.297,343.738 268.038,343.973 268.183 C 344.272 268.368,344.400 265.251,344.400 257.824 C 344.400 248.647,344.318 247.200,343.800 247.200 C 343.309 247.200,343.200 246.511,343.200 243.400 C 343.200 240.573,343.072 239.626,342.700 239.700 C 342.376 239.765,342.156 239.193,342.076 238.078 C 342.001 237.041,341.723 236.269,341.376 236.135 C 341.059 236.014,340.800 235.664,340.800 235.357 C 340.800 235.051,340.530 234.800,340.200 234.800 C 339.870 234.800,339.600 234.530,339.600 234.200 C 339.600 233.870,339.330 233.600,339.000 233.600 C 338.670 233.600,338.400 233.330,338.400 233.000 C 338.400 232.582,337.979 232.400,337.013 232.400 C 335.944 232.400,335.678 232.262,335.855 231.800 C 336.034 231.335,335.761 231.200,334.643 231.200 C 333.520 231.200,333.200 231.040,333.200 230.479 C 333.200 229.855,332.787 229.747,330.110 229.669 C 328.410 229.620,326.835 229.378,326.610 229.131 C 326.316 228.809,326.369 228.774,326.800 229.005 C 327.156 229.197,327.264 229.180,327.067 228.964 C 326.629 228.486,326.945 228.507,319.600 228.450 C 314.238 228.408,313.200 228.304,313.200 227.808 C 313.200 227.289,308.481 227.214,275.200 227.204 C 237.402 227.192,237.200 227.197,237.200 227.996 " stroke="none" fill="#4c748c" fill-rule="evenodd"></path><path id="path1" d="M176.400 26.200 C 176.400 26.705,175.511 26.800,170.800 26.800 C 166.089 26.800,165.200 26.895,165.200 27.400 C 165.200 27.908,164.244 28.000,159.000 28.000 C 153.756 28.000,152.800 28.092,152.800 28.600 C 152.800 28.980,152.417 29.200,151.756 29.200 C 150.363 29.200,148.816 30.722,148.807 32.100 C 148.802 32.808,148.586 33.200,148.200 33.200 C 147.733 33.200,147.600 33.733,147.600 35.600 C 147.600 37.467,147.467 38.000,147.000 38.000 C 146.605 38.000,146.400 38.395,146.400 39.157 C 146.400 39.817,146.142 40.413,145.800 40.545 C 144.907 40.887,144.907 51.600,145.800 51.600 C 146.301 51.600,146.400 52.422,146.400 56.600 C 146.400 60.778,146.301 61.600,145.800 61.600 C 145.405 61.600,145.200 61.995,145.200 62.757 C 145.200 63.417,144.942 64.013,144.600 64.145 C 144.249 64.279,144.000 64.879,144.000 65.587 C 144.000 66.754,143.933 66.800,142.243 66.800 C 141.050 66.800,140.412 66.993,140.255 67.400 C 140.086 67.842,139.388 68.000,137.613 68.000 C 135.735 68.000,135.200 68.133,135.200 68.600 C 135.200 69.044,134.733 69.200,133.400 69.200 C 132.067 69.200,131.600 69.356,131.600 69.800 C 131.600 70.200,131.200 70.400,130.400 70.400 C 129.600 70.400,129.200 70.600,129.200 71.000 C 129.200 71.330,128.924 71.600,128.587 71.600 C 128.251 71.600,127.871 71.870,127.745 72.200 C 127.618 72.530,127.264 72.800,126.957 72.800 C 126.651 72.800,126.400 73.070,126.400 73.400 C 126.400 73.730,126.130 74.000,125.800 74.000 C 125.470 74.000,125.200 74.251,125.200 74.557 C 125.200 74.864,124.930 75.218,124.600 75.345 C 124.249 75.479,124.000 76.079,124.000 76.787 C 124.000 77.599,123.801 78.000,123.400 78.000 C 123.070 78.000,122.800 78.270,122.800 78.600 C 122.800 78.930,122.530 79.200,122.200 79.200 C 121.756 79.200,121.600 79.667,121.600 81.000 C 121.600 82.333,121.444 82.800,121.000 82.800 C 120.558 82.800,120.400 83.262,120.400 84.557 C 120.400 85.750,120.207 86.388,119.800 86.545 C 119.389 86.702,119.200 87.345,119.200 88.587 C 119.200 89.870,119.037 90.400,118.643 90.400 C 117.221 90.400,116.983 108.313,118.400 108.684 C 119.062 108.857,119.200 109.230,119.200 110.847 C 119.200 112.316,119.349 112.800,119.800 112.800 C 120.267 112.800,120.400 113.333,120.400 115.200 C 120.400 117.067,120.533 117.600,121.000 117.600 C 121.400 117.600,121.600 118.000,121.600 118.800 C 121.600 119.600,121.800 120.000,122.200 120.000 C 122.653 120.000,122.800 120.489,122.800 122.000 C 122.800 123.511,122.947 124.000,123.400 124.000 C 123.867 124.000,124.000 124.533,124.000 126.400 C 124.000 128.267,124.133 128.800,124.600 128.800 C 125.045 128.800,125.200 129.268,125.200 130.613 C 125.200 131.855,125.389 132.498,125.800 132.655 C 126.253 132.829,126.400 133.562,126.400 135.655 C 126.400 137.748,126.547 138.481,127.000 138.655 C 127.438 138.823,127.600 139.512,127.600 141.200 C 127.600 142.888,127.762 143.577,128.200 143.745 C 128.546 143.877,128.800 144.475,128.800 145.155 C 128.800 146.738,129.168 147.600,129.843 147.600 C 130.195 147.600,130.400 148.041,130.400 148.800 C 130.400 149.600,130.600 150.000,131.000 150.000 C 131.444 150.000,131.600 150.467,131.600 151.800 C 131.600 153.133,131.756 153.600,132.200 153.600 C 132.683 153.600,132.800 154.222,132.800 156.800 C 132.800 159.378,132.917 160.000,133.400 160.000 C 133.844 160.000,134.000 160.467,134.000 161.800 C 134.000 163.133,134.156 163.600,134.600 163.600 C 135.019 163.600,135.200 164.022,135.200 165.000 C 135.200 165.978,135.381 166.400,135.800 166.400 C 136.244 166.400,136.400 166.867,136.400 168.200 C 136.400 169.533,136.556 170.000,137.000 170.000 C 137.375 170.000,137.600 170.379,137.600 171.013 C 137.600 171.569,137.870 172.129,138.200 172.255 C 138.542 172.387,138.800 172.983,138.800 173.643 C 138.800 174.376,139.008 174.800,139.368 174.800 C 139.681 174.800,140.058 175.352,140.206 176.027 C 140.354 176.702,140.728 177.351,141.038 177.470 C 141.347 177.588,141.600 178.206,141.600 178.843 C 141.600 179.605,141.805 180.000,142.200 180.000 C 142.644 180.000,142.800 180.467,142.800 181.800 C 142.800 183.133,142.956 183.600,143.400 183.600 C 143.880 183.600,144.000 184.201,144.000 186.613 C 144.000 188.921,144.140 189.679,144.600 189.855 C 145.080 190.040,145.200 190.916,145.200 194.243 C 145.200 197.671,145.305 198.400,145.800 198.400 C 146.253 198.400,146.400 198.889,146.400 200.400 C 146.400 201.911,146.547 202.400,147.000 202.400 C 147.467 202.400,147.600 202.933,147.600 204.800 C 147.600 206.667,147.733 207.200,148.200 207.200 C 148.645 207.200,148.800 207.668,148.800 209.013 C 148.800 210.255,148.989 210.898,149.400 211.055 C 149.839 211.224,150.000 211.916,150.000 213.643 C 150.000 215.733,150.091 216.000,150.800 216.000 C 151.544 216.000,151.600 216.267,151.600 219.800 C 151.600 222.911,151.709 223.600,152.200 223.600 C 152.644 223.600,152.800 224.067,152.800 225.400 C 152.800 226.733,152.956 227.200,153.400 227.200 C 153.800 227.200,154.000 227.600,154.000 228.400 C 154.000 229.200,154.200 229.600,154.600 229.600 C 155.019 229.600,155.200 230.022,155.200 231.000 C 155.200 232.260,155.310 232.400,156.300 232.403 C 156.905 232.404,157.940 232.763,158.600 233.200 C 160.136 234.217,164.180 234.310,165.537 233.359 C 166.196 232.898,166.864 232.796,167.926 232.995 C 170.521 233.481,172.898 233.382,177.200 232.609 C 182.575 231.643,191.166 231.618,198.200 232.548 C 209.890 234.094,214.999 234.207,221.600 233.064 C 224.523 232.559,225.225 232.554,226.600 233.032 C 230.187 234.279,232.335 233.536,234.804 230.194 C 235.696 228.987,236.600 228.000,236.813 228.000 C 237.026 228.000,237.200 227.571,237.200 227.047 C 237.200 226.430,237.482 226.019,238.000 225.884 C 238.636 225.718,238.800 225.338,238.800 224.037 C 238.800 222.849,238.964 222.400,239.400 222.400 C 239.730 222.400,240.000 222.124,240.000 221.787 C 240.000 221.451,240.270 221.071,240.600 220.945 C 240.942 220.813,241.200 220.217,241.200 219.557 C 241.200 218.795,241.405 218.400,241.800 218.400 C 242.200 218.400,242.400 218.000,242.400 217.200 C 242.400 216.400,242.600 216.000,243.000 216.000 C 243.444 216.000,243.600 215.533,243.600 214.200 C 243.600 212.867,243.756 212.400,244.200 212.400 C 244.672 212.400,244.800 211.844,244.800 209.800 C 244.800 207.756,244.928 207.200,245.400 207.200 C 245.844 207.200,246.000 206.733,246.000 205.400 C 246.000 204.067,246.156 203.600,246.600 203.600 C 247.065 203.600,247.200 203.071,247.200 201.243 C 247.200 199.516,247.361 198.824,247.800 198.655 C 248.211 198.498,248.400 197.855,248.400 196.613 C 248.400 195.067,248.518 194.800,249.200 194.800 C 249.879 194.800,250.000 194.533,250.000 193.043 C 250.000 191.850,250.193 191.212,250.600 191.055 C 251.042 190.886,251.200 190.188,251.200 188.413 C 251.200 186.535,251.333 186.000,251.800 186.000 C 252.267 186.000,252.400 185.467,252.400 183.600 C 252.400 181.733,252.533 181.200,253.000 181.200 C 253.472 181.200,253.600 180.644,253.600 178.600 C 253.600 176.556,253.728 176.000,254.200 176.000 C 254.667 176.000,254.800 175.467,254.800 173.600 C 254.800 171.733,254.933 171.200,255.400 171.200 C 255.872 171.200,256.000 170.644,256.000 168.600 C 256.000 166.644,255.862 166.000,255.443 166.000 C 254.728 166.000,254.400 166.877,254.400 168.790 C 254.400 169.637,254.178 170.403,253.900 170.514 C 253.625 170.623,252.951 171.588,252.403 172.657 C 249.194 178.911,244.405 180.948,240.292 177.808 C 237.148 175.408,236.382 169.620,238.622 165.200 C 238.901 164.650,239.359 163.586,239.640 162.835 C 239.921 162.085,240.747 160.604,241.475 159.545 C 242.204 158.486,242.800 157.507,242.800 157.370 C 242.800 157.233,243.061 156.554,243.379 155.860 C 243.697 155.167,244.325 153.520,244.774 152.200 C 245.845 149.050,247.554 147.423,249.466 147.733 C 251.201 148.015,256.331 151.411,256.897 152.652 C 257.513 154.006,258.400 153.857,258.400 152.400 C 258.400 151.645,258.605 151.200,258.953 151.200 C 259.759 151.200,259.988 149.903,259.995 145.300 C 259.999 141.925,260.106 141.200,260.600 141.200 C 261.000 141.200,261.200 140.800,261.200 140.000 C 261.200 139.200,261.400 138.800,261.800 138.800 C 262.244 138.800,262.400 138.333,262.400 137.000 C 262.400 135.667,262.556 135.200,263.000 135.200 C 263.483 135.200,263.600 134.578,263.600 132.000 C 263.600 129.422,263.717 128.800,264.200 128.800 C 264.679 128.800,264.800 128.205,264.800 125.843 C 264.800 123.583,264.942 122.831,265.400 122.655 C 265.842 122.486,266.000 121.788,266.000 120.013 C 266.000 118.135,266.133 117.600,266.600 117.600 C 267.067 117.600,267.200 117.067,267.200 115.200 C 267.200 113.333,267.333 112.800,267.800 112.800 C 268.272 112.800,268.400 112.244,268.400 110.200 C 268.400 108.156,268.528 107.600,269.000 107.600 C 269.501 107.600,269.600 106.778,269.600 102.600 C 269.600 97.867,269.643 97.600,270.400 97.600 C 271.079 97.600,271.200 97.333,271.200 95.843 C 271.200 94.650,271.393 94.012,271.800 93.855 C 272.291 93.667,272.400 92.676,272.400 88.400 C 272.400 84.124,272.291 83.133,271.800 82.945 C 271.470 82.818,271.198 82.329,271.195 81.857 C 271.185 80.370,270.727 79.200,270.153 79.200 C 269.764 79.200,269.600 78.664,269.600 77.387 C 269.600 76.145,269.411 75.502,269.000 75.345 C 268.658 75.213,268.400 74.617,268.400 73.957 C 268.400 73.195,268.195 72.800,267.800 72.800 C 267.470 72.800,267.200 72.530,267.200 72.200 C 267.200 71.870,266.930 71.600,266.600 71.600 C 266.200 71.600,266.000 71.200,266.000 70.400 C 266.000 69.333,265.867 69.200,264.800 69.200 C 264.000 69.200,263.600 69.000,263.600 68.600 C 263.600 68.200,263.200 68.000,262.400 68.000 C 261.600 68.000,261.200 67.800,261.200 67.400 C 261.200 66.947,260.711 66.800,259.200 66.800 C 257.739 66.800,257.200 66.647,257.200 66.232 C 257.200 65.919,256.675 65.548,256.033 65.407 C 255.392 65.266,254.767 64.892,254.646 64.576 C 254.524 64.259,253.989 64.000,253.455 64.000 C 252.922 64.000,252.382 63.730,252.255 63.400 C 252.129 63.070,251.569 62.800,251.013 62.800 L 250.000 62.800 250.000 53.763 C 250.000 45.062,249.970 44.717,249.200 44.516 C 248.462 44.323,248.400 43.970,248.400 39.953 C 248.400 36.350,248.297 35.600,247.800 35.600 C 247.333 35.600,247.200 35.065,247.200 33.187 C 247.200 31.412,247.042 30.714,246.600 30.545 C 246.258 30.413,246.000 29.817,246.000 29.157 C 246.000 28.395,245.795 28.000,245.400 28.000 C 245.070 28.000,244.800 27.730,244.800 27.400 C 244.800 27.000,244.400 26.800,243.600 26.800 C 242.800 26.800,242.400 26.600,242.400 26.200 C 242.400 25.688,241.311 25.600,235.000 25.600 C 228.689 25.600,227.600 25.688,227.600 26.200 C 227.600 26.726,224.889 26.800,205.600 26.800 C 186.311 26.800,183.600 26.726,183.600 26.200 C 183.600 25.711,182.933 25.600,180.000 25.600 C 177.067 25.600,176.400 25.711,176.400 26.200 M261.600 100.451 C 264.915 102.458,266.672 106.084,266.253 110.052 C 265.741 114.905,265.492 116.229,264.982 116.806 C 264.283 117.597,262.898 123.066,261.944 128.800 C 260.201 139.280,248.290 140.073,243.916 130.000 C 239.164 119.057,239.514 113.103,245.435 104.132 C 246.186 102.995,246.800 101.913,246.800 101.728 C 246.800 100.541,248.977 100.173,259.000 99.664 C 259.660 99.630,260.830 99.984,261.600 100.451 M194.830 100.611 C 200.812 102.721,202.440 113.581,198.125 122.600 C 197.599 123.700,196.738 126.040,196.212 127.800 C 195.686 129.560,194.866 131.990,194.389 133.200 C 193.913 134.410,193.392 136.030,193.232 136.800 C 191.806 143.661,184.301 146.017,178.845 141.317 C 177.017 139.742,176.636 139.149,174.667 134.800 C 172.618 130.277,172.067 128.974,171.789 128.000 C 171.633 127.450,170.806 125.504,169.952 123.676 C 169.099 121.848,168.400 120.192,168.400 119.996 C 168.400 119.800,167.816 118.776,167.103 117.720 C 165.990 116.071,165.785 115.381,165.656 112.831 C 165.529 110.332,165.324 109.611,164.353 108.271 C 161.448 104.262,163.584 102.074,170.655 101.815 C 176.282 101.609,188.380 100.554,188.692 100.242 C 189.163 99.771,193.124 100.009,194.830 100.611 M235.200 102.703 C 238.143 104.547,241.007 110.847,239.794 112.809 C 239.669 113.012,239.391 114.719,239.177 116.604 C 238.963 118.488,238.635 120.338,238.448 120.715 C 237.735 122.149,237.090 124.273,236.782 126.200 C 234.927 137.816,230.583 142.670,223.566 140.964 C 219.903 140.074,214.400 133.694,214.400 130.337 C 214.400 129.973,213.860 128.471,213.200 127.000 C 212.540 125.529,212.000 123.932,212.000 123.452 C 212.000 122.971,211.754 122.223,211.454 121.789 C 211.154 121.355,210.767 120.550,210.595 120.000 C 210.424 119.450,209.894 118.370,209.419 117.600 C 207.804 114.985,207.095 112.506,207.381 110.477 C 207.710 108.139,210.204 102.933,211.267 102.364 C 212.211 101.859,219.940 102.292,220.692 102.891 C 221.018 103.152,222.158 103.074,224.092 102.658 C 229.470 101.500,233.307 101.516,235.200 102.703 M150.533 102.430 C 156.363 104.049,158.766 117.021,154.897 125.982 C 154.560 126.762,154.013 128.030,153.681 128.800 C 153.350 129.570,152.836 130.678,152.539 131.262 C 152.243 131.846,152.000 132.663,152.000 133.078 C 152.000 135.505,149.600 142.000,148.703 142.000 C 148.461 142.000,147.937 142.295,147.538 142.656 C 146.221 143.848,140.920 143.643,138.920 142.324 C 136.922 141.006,135.172 138.487,134.238 135.584 C 133.851 134.383,133.359 132.860,133.146 132.200 C 132.933 131.540,132.299 129.560,131.739 127.800 C 131.178 126.040,129.842 122.764,128.771 120.521 C 127.034 116.883,126.770 115.963,126.331 112.023 L 125.840 107.603 127.180 106.220 L 128.520 104.838 132.760 104.867 C 135.745 104.888,137.518 104.705,138.750 104.248 C 139.713 103.892,140.973 103.586,141.550 103.569 C 142.128 103.552,143.500 103.206,144.600 102.800 C 146.941 101.936,148.421 101.844,150.533 102.430 M224.967 148.180 C 225.645 148.685,226.730 149.268,227.379 149.475 C 229.003 149.995,231.494 153.660,231.814 156.000 C 231.950 156.990,232.414 159.420,232.846 161.400 C 233.278 163.380,233.822 165.900,234.054 167.000 C 235.456 173.630,232.402 178.000,226.368 178.000 C 225.044 178.000,223.474 178.249,222.880 178.553 C 222.286 178.857,220.810 179.244,219.600 179.413 C 208.649 180.942,204.471 175.822,208.000 165.200 C 208.660 163.213,209.200 161.357,209.200 161.075 C 209.200 159.729,212.257 154.776,214.519 152.456 C 220.250 146.581,221.908 145.902,224.967 148.180 M188.455 150.600 C 189.155 151.370,189.934 152.000,190.186 152.000 C 191.490 152.000,194.400 156.312,194.400 158.245 C 194.400 160.852,195.705 163.543,198.302 166.290 C 201.782 169.972,202.015 170.376,202.077 172.847 C 202.158 176.079,200.826 178.198,197.613 179.953 C 196.901 180.342,194.935 180.520,191.000 180.553 C 177.186 180.669,173.211 174.007,178.855 160.200 C 179.409 158.845,180.312 155.872,180.617 154.402 C 181.647 149.432,185.633 147.499,188.455 150.600 M155.733 151.513 C 156.465 151.905,157.589 152.638,158.232 153.142 C 159.913 154.461,165.878 159.006,168.073 160.641 C 177.620 167.752,175.808 182.778,165.400 182.802 C 164.740 182.804,163.660 183.105,163.000 183.471 C 157.658 186.435,145.600 180.225,145.600 174.509 C 145.600 174.097,145.422 173.582,145.204 173.364 C 144.985 173.145,144.621 172.074,144.395 170.984 C 140.681 153.125,140.866 152.275,148.669 151.388 C 154.561 150.719,154.241 150.713,155.733 151.513 M256.000 163.967 C 256.000 164.458,256.258 164.800,256.629 164.800 C 257.002 164.800,257.206 164.528,257.129 164.133 C 256.935 163.130,256.000 162.992,256.000 163.967 " stroke="none" fill="#fbba05" fill-rule="evenodd"></path><path id="path2" d="M253.200 99.994 C 248.892 100.247,246.800 100.814,246.800 101.728 C 246.800 101.913,246.186 102.995,245.435 104.132 C 239.514 113.103,239.164 119.057,243.916 130.000 C 248.290 140.073,260.201 139.280,261.944 128.800 C 262.898 123.066,264.283 117.597,264.982 116.806 C 265.492 116.229,265.741 114.905,266.253 110.052 C 266.786 104.999,262.922 99.465,259.000 99.664 C 258.340 99.697,255.730 99.846,253.200 99.994 M188.692 100.242 C 188.380 100.554,176.282 101.609,170.655 101.815 C 163.584 102.074,161.448 104.262,164.353 108.271 C 165.324 109.611,165.529 110.332,165.656 112.831 C 165.785 115.381,165.990 116.071,167.103 117.720 C 167.816 118.776,168.400 119.800,168.400 119.996 C 168.400 120.192,169.099 121.848,169.952 123.676 C 170.806 125.504,171.633 127.450,171.789 128.000 C 172.067 128.974,172.618 130.277,174.667 134.800 C 176.636 139.149,177.017 139.742,178.845 141.317 C 184.301 146.017,191.806 143.661,193.232 136.800 C 193.392 136.030,193.913 134.410,194.389 133.200 C 194.866 131.990,195.686 129.560,196.212 127.800 C 196.738 126.040,197.599 123.700,198.125 122.600 C 201.525 115.492,201.133 105.350,197.324 101.911 C 195.735 100.476,189.637 99.297,188.692 100.242 M228.200 101.863 C 227.540 101.956,225.691 102.314,224.092 102.658 C 222.158 103.074,221.018 103.152,220.692 102.891 C 219.940 102.292,212.211 101.859,211.267 102.364 C 210.204 102.933,207.710 108.139,207.381 110.477 C 207.095 112.506,207.804 114.985,209.419 117.600 C 209.894 118.370,210.424 119.450,210.595 120.000 C 210.767 120.550,211.154 121.355,211.454 121.789 C 211.754 122.223,212.000 122.971,212.000 123.452 C 212.000 123.932,212.540 125.529,213.200 127.000 C 213.860 128.471,214.400 129.973,214.400 130.337 C 214.400 133.694,219.903 140.074,223.566 140.964 C 230.583 142.670,234.927 137.816,236.782 126.200 C 237.090 124.273,237.735 122.149,238.448 120.715 C 238.635 120.338,238.963 118.488,239.177 116.604 C 239.391 114.719,239.669 113.012,239.794 112.809 C 239.919 112.607,239.831 111.246,239.598 109.786 C 238.650 103.854,234.505 100.972,228.200 101.863 M144.600 102.800 C 143.500 103.206,142.128 103.552,141.550 103.569 C 140.973 103.586,139.713 103.892,138.750 104.248 C 137.518 104.705,135.745 104.888,132.760 104.867 L 128.520 104.838 127.180 106.220 L 125.840 107.603 126.331 112.023 C 126.770 115.963,127.034 116.883,128.771 120.521 C 129.842 122.764,131.178 126.040,131.739 127.800 C 132.299 129.560,132.933 131.540,133.146 132.200 C 133.359 132.860,133.851 134.383,134.238 135.584 C 135.172 138.487,136.922 141.006,138.920 142.324 C 140.920 143.643,146.221 143.848,147.538 142.656 C 147.937 142.295,148.461 142.000,148.703 142.000 C 149.600 142.000,152.000 135.505,152.000 133.078 C 152.000 132.663,152.243 131.846,152.539 131.262 C 152.836 130.678,153.350 129.570,153.681 128.800 C 154.013 128.030,154.560 126.762,154.897 125.982 C 156.730 121.736,157.175 115.631,156.059 110.032 C 154.711 103.273,150.508 100.620,144.600 102.800 M218.975 148.326 C 214.175 152.182,209.200 158.672,209.200 161.075 C 209.200 161.357,208.660 163.213,208.000 165.200 C 204.471 175.822,208.649 180.942,219.600 179.413 C 220.810 179.244,222.286 178.857,222.880 178.553 C 223.474 178.249,225.044 178.000,226.368 178.000 C 232.402 178.000,235.456 173.630,234.054 167.000 C 233.822 165.900,233.278 163.380,232.846 161.400 C 232.414 159.420,231.950 156.990,231.814 156.000 C 231.494 153.660,229.003 149.995,227.379 149.475 C 226.730 149.268,225.645 148.685,224.967 148.180 C 222.686 146.481,221.226 146.516,218.975 148.326 M246.850 148.657 C 246.073 149.362,245.277 150.720,244.774 152.200 C 244.325 153.520,243.697 155.167,243.379 155.860 C 243.061 156.554,242.800 157.233,242.800 157.370 C 242.800 157.507,242.204 158.486,241.475 159.545 C 240.747 160.604,239.921 162.085,239.640 162.835 C 239.359 163.586,238.901 164.650,238.622 165.200 C 236.382 169.620,237.148 175.408,240.292 177.808 C 244.405 180.948,249.194 178.911,252.403 172.657 C 252.951 171.588,253.625 170.623,253.900 170.514 C 254.178 170.403,254.400 169.637,254.400 168.790 C 254.400 166.877,254.728 166.000,255.443 166.000 C 255.816 166.000,256.000 165.524,256.000 164.557 C 256.000 163.439,256.135 163.166,256.600 163.345 C 257.078 163.528,257.200 163.212,257.200 161.787 C 257.200 160.465,257.356 160.000,257.800 160.000 C 258.283 160.000,258.400 159.378,258.400 156.800 C 258.400 154.393,258.267 153.600,257.864 153.600 C 257.570 153.600,257.134 153.174,256.897 152.652 C 255.471 149.523,248.813 146.875,246.850 148.657 M183.142 149.878 C 181.981 150.598,181.065 152.240,180.617 154.402 C 180.312 155.872,179.409 158.845,178.855 160.200 C 173.211 174.007,177.186 180.669,191.000 180.553 C 194.935 180.520,196.901 180.342,197.613 179.953 C 200.826 178.198,202.158 176.079,202.077 172.847 C 202.015 170.376,201.782 169.972,198.302 166.290 C 195.705 163.543,194.400 160.852,194.400 158.245 C 194.400 156.312,191.490 152.000,190.186 152.000 C 189.934 152.000,189.155 151.370,188.455 150.600 C 186.996 148.997,184.999 148.726,183.142 149.878 M148.669 151.388 C 140.866 152.275,140.681 153.125,144.395 170.984 C 144.621 172.074,144.985 173.145,145.204 173.364 C 145.422 173.582,145.600 174.097,145.600 174.509 C 145.600 180.225,157.658 186.435,163.000 183.471 C 163.660 183.105,164.740 182.804,165.400 182.802 C 175.808 182.778,177.620 167.752,168.073 160.641 C 165.878 159.006,159.913 154.461,158.232 153.142 C 156.551 151.824,154.514 150.792,153.701 150.848 C 153.316 150.875,151.051 151.118,148.669 151.388 " stroke="none" fill="#f42689" fill-rule="evenodd"></path><path id="path3" d="M234.804 230.194 C 232.335 233.536,230.187 234.279,226.600 233.032 C 225.225 232.554,224.523 232.559,221.600 233.064 C 214.999 234.207,209.890 234.094,198.200 232.548 C 191.166 231.618,182.575 231.643,177.200 232.609 C 172.898 233.382,170.521 233.481,167.926 232.995 C 166.864 232.796,166.196 232.898,165.537 233.359 C 164.160 234.324,160.244 234.216,158.546 233.167 C 157.805 232.709,156.974 232.427,156.699 232.540 C 156.397 232.665,156.556 232.854,157.100 233.020 C 157.595 233.170,158.000 233.448,158.000 233.636 C 158.000 235.145,162.198 235.579,165.337 234.396 C 167.046 233.751,167.793 233.633,168.117 233.957 C 168.801 234.641,174.992 234.533,175.578 233.827 C 175.906 233.431,177.190 233.203,179.727 233.089 C 181.747 232.998,184.717 232.693,186.326 232.410 C 188.687 231.995,189.460 231.993,190.326 232.400 C 190.917 232.678,193.200 232.995,195.400 233.104 C 197.600 233.213,199.886 233.549,200.480 233.851 C 202.109 234.679,221.523 234.645,222.624 233.813 C 223.636 233.047,225.370 233.041,226.000 233.800 C 226.357 234.230,227.300 234.400,229.329 234.400 L 232.159 234.400 234.080 232.355 C 235.136 231.230,236.000 229.970,236.000 229.555 C 236.000 229.140,236.270 228.800,236.600 228.800 C 236.930 228.800,237.200 228.620,237.200 228.400 C 237.200 227.480,236.326 228.134,234.804 230.194 " stroke="none" fill="#888864" fill-rule="evenodd"></path><path id="path4" d="M279.491 379.489 C 280.201 379.577,281.461 379.579,282.291 379.492 C 283.121 379.405,282.540 379.333,281.000 379.331 C 279.460 379.329,278.781 379.400,279.491 379.489 M102.901 394.200 C 102.905 395.080,102.987 395.393,103.083 394.895 C 103.179 394.398,103.175 393.678,103.075 393.295 C 102.975 392.913,102.896 393.320,102.901 394.200 " stroke="none" fill="#784c90" fill-rule="evenodd"></path></g></svg>