<svg id="svg" version="1.1" xmlns="http://www.w3.org/2000/svg" xmlns:xlink="http://www.w3.org/1999/xlink" width="400" height="532.9113924050633" viewBox="0, 0, 400,532.9113924050633"><g id="svgg"><path id="path0" d="M50.400 36.600 C 50.096 36.966,49.220 37.200,48.151 37.200 C 46.667 37.200,46.400 37.322,46.400 38.000 C 46.400 38.533,46.133 38.800,45.600 38.800 C 45.156 38.800,44.800 39.067,44.800 39.400 C 44.800 39.730,44.530 40.000,44.200 40.000 C 43.870 40.000,43.600 40.270,43.600 40.600 C 43.600 40.930,43.330 41.200,43.000 41.200 C 42.548 41.200,42.400 41.684,42.400 43.157 C 42.400 44.528,42.220 45.183,41.800 45.345 C 41.367 45.511,41.200 46.190,41.200 47.787 C 41.200 49.487,41.061 50.000,40.600 50.000 C 40.200 50.000,40.000 50.400,40.000 51.200 C 40.000 52.330,39.908 52.400,38.429 52.400 C 37.465 52.400,36.586 52.671,36.157 53.100 C 35.458 53.799,35.327 53.856,34.200 53.950 C 33.870 53.977,33.600 54.270,33.600 54.600 C 33.600 55.000,33.200 55.200,32.400 55.200 C 31.600 55.200,31.200 55.400,31.200 55.800 C 31.200 56.130,30.944 56.400,30.632 56.400 C 30.319 56.400,29.948 56.925,29.807 57.567 C 29.666 58.208,29.292 58.833,28.976 58.954 C 28.656 59.077,28.400 59.696,28.400 60.345 C 28.400 61.015,28.144 61.613,27.800 61.745 C 27.332 61.924,27.200 62.723,27.200 65.387 C 27.200 68.154,27.314 68.800,27.800 68.800 C 28.236 68.800,28.400 69.249,28.400 70.444 C 28.400 72.115,29.607 73.978,30.700 73.993 C 30.975 73.997,31.200 74.270,31.200 74.600 C 31.200 74.930,31.470 75.200,31.800 75.200 C 32.130 75.200,32.400 75.470,32.400 75.800 C 32.400 76.200,32.800 76.400,33.600 76.400 C 34.355 76.400,34.800 76.605,34.800 76.953 C 34.800 77.556,35.985 77.986,37.667 77.995 C 38.253 77.998,38.793 78.174,38.867 78.387 C 38.940 78.601,41.736 78.898,45.080 79.048 C 49.616 79.252,51.214 79.458,51.368 79.861 C 51.679 80.671,58.924 80.619,59.743 79.800 C 60.818 78.725,64.323 79.542,65.320 81.100 C 65.542 81.447,66.904 81.600,69.777 81.600 C 73.086 81.600,73.961 81.720,74.145 82.200 C 74.314 82.642,75.012 82.800,76.787 82.800 C 78.665 82.800,79.200 82.933,79.200 83.400 C 79.200 83.821,79.625 84.000,80.624 84.000 C 81.477 84.000,81.948 84.161,81.798 84.403 C 81.492 84.899,82.034 85.085,84.597 85.364 C 85.695 85.483,86.655 85.765,86.730 85.991 C 86.805 86.216,87.101 86.400,87.387 86.400 C 87.673 86.400,88.001 86.760,88.116 87.200 C 88.287 87.854,88.662 88.000,90.163 88.000 C 91.529 88.000,92.000 88.154,92.000 88.600 C 92.000 88.930,92.270 89.200,92.600 89.200 C 92.930 89.200,93.200 89.470,93.200 89.800 C 93.200 90.130,93.470 90.400,93.800 90.400 C 94.130 90.400,94.400 90.670,94.400 91.000 C 94.400 91.400,94.800 91.600,95.600 91.600 C 96.617 91.600,96.800 91.754,96.800 92.613 C 96.800 93.169,97.070 93.729,97.400 93.855 C 97.730 93.982,98.003 94.291,98.007 94.543 C 98.016 95.120,99.764 96.800,100.356 96.800 C 100.600 96.800,100.800 97.070,100.800 97.400 C 100.800 97.730,101.070 98.000,101.400 98.000 C 101.730 98.000,102.000 98.270,102.000 98.600 C 102.000 98.930,102.172 99.200,102.383 99.200 C 102.869 99.200,107.200 103.547,107.200 104.035 C 107.200 104.236,107.470 104.400,107.800 104.400 C 108.130 104.400,108.400 104.670,108.400 105.000 C 108.400 105.330,108.670 105.600,109.000 105.600 C 109.359 105.600,109.600 105.969,109.600 106.519 C 109.600 107.049,110.100 107.853,110.783 108.419 C 111.541 109.047,111.972 109.786,111.983 110.473 C 111.994 111.186,112.269 111.631,112.800 111.800 C 113.240 111.940,113.600 112.293,113.600 112.584 C 113.600 112.876,113.872 113.219,114.204 113.346 C 114.536 113.473,114.784 113.718,114.756 113.889 C 114.597 114.861,114.875 115.600,115.400 115.600 C 115.730 115.600,116.000 115.876,116.000 116.213 C 116.000 116.549,116.270 116.929,116.600 117.055 C 116.930 117.182,117.200 117.722,117.200 118.255 C 117.200 118.789,117.470 119.329,117.800 119.455 C 118.130 119.582,118.400 119.936,118.400 120.243 C 118.400 120.549,118.670 120.800,119.000 120.800 C 119.344 120.800,119.600 121.161,119.600 121.645 C 119.600 122.160,120.617 123.478,122.200 125.015 C 124.074 126.834,124.800 127.827,124.800 128.569 C 124.800 129.219,125.022 129.600,125.400 129.600 C 125.775 129.600,126.000 129.979,126.000 130.613 C 126.000 131.169,126.270 131.729,126.600 131.855 C 126.930 131.982,127.200 132.336,127.200 132.643 C 127.200 132.949,127.470 133.200,127.800 133.200 C 128.130 133.200,128.400 133.476,128.400 133.813 C 128.400 134.149,128.659 134.524,128.976 134.646 C 129.292 134.767,129.666 135.392,129.807 136.033 C 129.948 136.675,130.319 137.200,130.632 137.200 C 130.996 137.200,131.200 137.630,131.200 138.400 C 131.200 139.200,131.400 139.600,131.800 139.600 C 132.130 139.600,132.400 139.876,132.400 140.213 C 132.400 140.549,132.670 140.929,133.000 141.055 C 133.330 141.182,133.600 141.648,133.600 142.090 C 133.600 142.935,136.385 146.000,137.153 146.000 C 137.399 146.000,137.600 146.270,137.600 146.600 C 137.600 146.930,137.870 147.200,138.200 147.200 C 138.601 147.200,138.800 147.601,138.800 148.413 C 138.800 149.121,139.049 149.721,139.400 149.855 C 139.730 149.982,140.000 150.336,140.000 150.643 C 140.000 150.949,140.270 151.200,140.600 151.200 C 141.000 151.200,141.200 151.600,141.200 152.400 C 141.200 153.200,141.400 153.600,141.800 153.600 C 142.260 153.600,142.400 154.108,142.400 155.771 C 142.400 157.168,142.614 158.157,143.000 158.543 C 143.330 158.873,143.600 159.496,143.600 159.929 C 143.600 160.361,143.844 160.808,144.143 160.923 C 144.442 161.037,144.797 161.687,144.933 162.366 C 145.079 163.097,145.428 163.600,145.790 163.600 C 146.220 163.600,146.400 164.012,146.400 165.000 C 146.400 165.978,146.581 166.400,147.000 166.400 C 147.375 166.400,147.600 166.779,147.600 167.413 C 147.600 167.969,147.870 168.529,148.200 168.655 C 148.535 168.784,148.800 169.378,148.800 170.000 C 148.800 170.622,149.065 171.216,149.400 171.345 C 149.797 171.497,150.000 172.124,150.000 173.200 C 150.000 174.276,150.203 174.903,150.600 175.055 C 151.028 175.220,151.200 175.889,151.200 177.394 C 151.200 178.738,151.408 179.675,151.774 179.979 C 152.090 180.241,152.464 180.983,152.606 181.628 C 152.748 182.272,153.119 182.800,153.432 182.800 C 153.796 182.800,154.000 183.230,154.000 184.000 C 154.000 184.800,154.200 185.200,154.600 185.200 C 154.930 185.200,155.200 185.470,155.200 185.800 C 155.200 186.130,155.449 186.400,155.753 186.400 C 156.058 186.400,156.401 186.760,156.516 187.200 C 156.655 187.732,157.062 188.000,157.729 188.000 C 158.281 188.000,158.805 188.215,158.893 188.478 C 159.184 189.352,167.504 188.614,170.000 187.492 C 172.149 186.526,174.638 184.187,175.575 182.252 C 176.040 181.291,176.776 180.184,177.210 179.791 C 178.493 178.630,178.273 171.600,176.953 171.600 C 176.556 171.600,176.400 171.036,176.400 169.600 L 176.400 167.600 181.413 167.600 C 185.499 167.600,186.468 167.489,186.655 167.000 C 186.796 166.632,187.403 166.400,188.222 166.400 C 189.568 166.400,191.600 164.989,191.600 164.054 C 191.600 163.804,191.847 163.600,192.150 163.600 C 193.465 163.600,193.728 154.222,192.425 153.808 C 191.961 153.661,191.599 153.127,191.525 152.481 C 191.427 151.637,191.159 151.372,190.300 151.273 C 189.670 151.201,189.200 150.902,189.200 150.573 C 189.200 150.090,187.511 150.000,178.400 150.000 L 167.600 150.000 167.600 148.600 C 167.600 147.622,167.781 147.200,168.200 147.200 C 168.530 147.200,168.800 146.930,168.800 146.600 C 168.800 146.109,169.489 146.000,172.600 146.000 C 175.711 146.000,176.400 145.891,176.400 145.400 C 176.400 144.981,176.822 144.800,177.800 144.800 C 178.778 144.800,179.200 144.619,179.200 144.200 C 179.200 143.870,179.470 143.600,179.800 143.600 C 180.130 143.600,180.400 143.330,180.400 143.000 C 180.400 142.670,180.670 142.400,181.000 142.400 C 181.333 142.400,181.600 142.044,181.600 141.600 C 181.600 141.156,181.867 140.800,182.200 140.800 C 182.693 140.800,182.800 140.087,182.800 136.787 C 182.800 133.590,182.678 132.728,182.200 132.545 C 181.870 132.418,181.600 131.874,181.600 131.337 C 181.600 130.598,181.259 130.217,180.200 129.774 C 179.430 129.452,178.800 129.012,178.800 128.795 C 178.800 128.578,178.279 128.400,177.643 128.400 C 176.983 128.400,176.387 128.142,176.255 127.800 C 176.083 127.351,175.364 127.200,173.400 127.200 C 171.436 127.200,170.717 127.351,170.545 127.800 C 170.369 128.258,169.619 128.400,167.377 128.400 C 165.252 128.400,164.351 128.558,164.120 128.970 C 163.816 129.512,158.290 130.058,157.876 129.587 C 156.885 128.457,157.262 127.200,158.592 127.200 C 159.522 127.200,160.000 127.013,160.000 126.648 C 160.000 126.258,160.724 126.044,162.477 125.917 C 163.867 125.816,165.023 125.532,165.110 125.269 C 165.196 125.011,165.719 124.800,166.271 124.800 C 166.938 124.800,167.345 124.532,167.484 124.000 C 167.599 123.560,167.942 123.200,168.247 123.200 C 168.551 123.200,168.800 122.941,168.800 122.625 C 168.800 122.269,169.295 122.003,170.100 121.925 C 171.183 121.821,171.421 121.617,171.527 120.700 C 171.599 120.070,171.898 119.600,172.227 119.600 C 173.094 119.600,173.068 110.078,172.200 109.745 C 171.870 109.618,171.600 109.264,171.600 108.957 C 171.600 108.651,171.330 108.400,171.000 108.400 C 170.670 108.400,170.400 108.149,170.400 107.843 C 170.400 107.239,169.562 106.800,168.410 106.800 C 168.012 106.800,167.582 106.530,167.455 106.200 C 167.135 105.364,161.600 105.322,161.600 106.155 C 161.600 106.474,161.002 106.823,160.200 106.974 C 159.362 107.131,158.800 107.470,158.800 107.818 C 158.800 108.241,158.308 108.400,157.000 108.400 C 155.667 108.400,155.200 108.556,155.200 109.000 C 155.200 109.467,154.665 109.600,152.787 109.600 C 151.012 109.600,150.314 109.758,150.145 110.200 C 150.013 110.542,149.417 110.800,148.757 110.800 C 147.995 110.800,147.600 111.005,147.600 111.400 C 147.600 111.730,147.330 112.000,147.000 112.000 C 146.325 112.000,144.800 110.613,144.800 110.000 C 144.800 109.780,144.530 109.600,144.200 109.600 C 143.870 109.600,143.600 109.330,143.600 109.000 C 143.600 108.670,143.330 108.400,143.000 108.400 C 142.670 108.400,142.400 108.124,142.400 107.787 C 142.400 107.451,142.130 107.071,141.800 106.945 C 140.528 106.457,141.746 103.200,143.200 103.200 C 143.420 103.200,143.600 102.930,143.600 102.600 C 143.600 102.270,143.870 102.000,144.200 102.000 C 144.533 102.000,144.800 101.644,144.800 101.200 C 144.800 100.756,145.067 100.400,145.400 100.400 C 145.730 100.400,146.000 100.130,146.000 99.800 C 146.000 99.470,146.233 99.200,146.519 99.200 C 146.804 99.200,147.479 98.668,148.019 98.017 C 148.558 97.366,149.225 96.826,149.500 96.817 C 149.775 96.808,150.000 96.553,150.000 96.250 C 150.000 95.948,150.540 95.592,151.200 95.460 C 152.158 95.268,152.400 95.014,152.400 94.197 C 152.400 93.635,152.670 93.071,153.000 92.945 C 153.330 92.818,153.600 92.464,153.600 92.157 C 153.600 91.851,153.921 91.600,154.313 91.600 C 154.797 91.600,155.054 91.257,155.114 90.530 C 155.163 89.942,155.472 89.162,155.801 88.799 C 156.547 87.975,156.582 86.148,155.861 85.720 C 155.564 85.544,155.208 84.681,155.070 83.801 C 154.931 82.922,154.544 82.002,154.209 81.757 C 153.874 81.512,153.600 81.107,153.600 80.856 C 153.600 80.605,153.330 80.400,153.000 80.400 C 152.670 80.400,152.400 80.130,152.400 79.800 C 152.400 79.405,152.005 79.200,151.243 79.200 C 150.583 79.200,149.987 78.942,149.855 78.600 C 149.679 78.140,148.921 78.000,146.613 78.000 C 144.201 78.000,143.600 78.120,143.600 78.600 C 143.600 79.000,143.200 79.200,142.400 79.200 C 141.600 79.200,141.200 79.400,141.200 79.800 C 141.200 80.130,140.930 80.400,140.600 80.400 C 140.270 80.400,140.000 80.670,140.000 81.000 C 140.000 81.375,139.621 81.600,138.987 81.600 C 138.431 81.600,137.871 81.870,137.745 82.200 C 137.618 82.530,137.309 82.803,137.057 82.807 C 136.480 82.816,134.800 84.564,134.800 85.156 C 134.800 85.400,134.530 85.600,134.200 85.600 C 133.870 85.600,133.600 85.870,133.600 86.200 C 133.600 86.530,133.330 86.800,133.000 86.800 C 132.670 86.800,132.400 87.070,132.400 87.400 C 132.400 87.730,132.130 88.000,131.800 88.000 C 131.470 88.000,131.200 88.270,131.200 88.600 C 131.200 88.930,130.943 89.200,130.629 89.200 C 130.315 89.200,129.976 89.515,129.876 89.900 C 129.775 90.285,129.672 90.015,129.646 89.300 C 129.615 88.432,129.401 88.000,129.000 88.000 C 128.670 88.000,128.400 87.730,128.400 87.400 C 128.400 87.070,128.130 86.800,127.800 86.800 C 127.470 86.800,127.200 86.530,127.200 86.200 C 127.200 85.870,126.930 85.600,126.600 85.600 C 126.267 85.600,126.000 85.244,126.000 84.800 C 126.000 84.356,126.267 84.000,126.600 84.000 C 126.930 84.000,127.200 83.749,127.200 83.443 C 127.200 83.136,127.470 82.782,127.800 82.655 C 128.130 82.529,128.400 81.969,128.400 81.413 C 128.400 80.779,128.625 80.400,129.000 80.400 C 129.330 80.400,129.600 80.229,129.600 80.021 C 129.600 79.470,131.412 77.600,131.946 77.600 C 132.196 77.600,132.400 77.330,132.400 77.000 C 132.400 76.600,132.800 76.400,133.600 76.400 C 134.400 76.400,134.800 76.200,134.800 75.800 C 134.800 75.470,135.070 75.200,135.400 75.200 C 135.730 75.200,136.000 74.930,136.000 74.600 C 136.000 74.270,136.270 74.000,136.600 74.000 C 136.930 74.000,137.200 73.730,137.200 73.400 C 137.200 73.070,137.470 72.800,137.800 72.800 C 138.197 72.800,138.400 72.403,138.400 71.627 C 138.400 70.805,138.640 70.378,139.200 70.200 C 139.898 69.978,140.000 69.595,140.000 67.187 C 140.000 64.838,139.881 64.365,139.200 64.000 C 138.760 63.765,138.400 63.212,138.400 62.772 C 138.400 62.333,137.860 61.445,137.200 60.800 C 136.540 60.155,136.000 59.441,136.000 59.213 C 136.000 58.986,135.537 58.800,134.971 58.800 C 134.406 58.800,133.673 58.530,133.343 58.200 C 132.989 57.846,132.011 57.600,130.959 57.600 C 129.742 57.600,129.102 57.791,128.945 58.200 C 128.803 58.570,128.195 58.800,127.357 58.800 C 126.417 58.800,126.000 58.985,126.000 59.400 C 126.000 59.734,125.644 60.000,125.196 60.000 C 124.754 60.000,124.084 60.360,123.707 60.800 C 123.330 61.240,122.649 61.600,122.192 61.600 C 121.736 61.600,120.921 62.132,120.381 62.783 C 119.842 63.434,119.175 63.974,118.900 63.983 C 118.625 63.992,118.400 64.270,118.400 64.600 C 118.400 64.930,118.130 65.200,117.800 65.200 C 117.470 65.200,117.200 65.470,117.200 65.800 C 117.200 66.130,116.930 66.400,116.600 66.400 C 116.270 66.400,116.000 66.651,116.000 66.957 C 116.000 67.264,115.747 67.612,115.438 67.730 C 115.128 67.849,114.754 68.498,114.606 69.173 C 114.458 69.848,114.081 70.400,113.768 70.400 C 113.456 70.400,113.200 70.670,113.200 71.000 C 113.200 71.330,112.930 71.600,112.600 71.600 C 112.270 71.600,112.000 71.330,112.000 71.000 C 112.000 70.670,111.730 70.400,111.400 70.400 C 111.070 70.400,110.800 70.211,110.800 69.981 C 110.800 69.269,108.650 67.626,107.700 67.613 C 106.969 67.602,106.800 67.374,106.800 66.400 C 106.800 65.740,107.001 65.200,107.247 65.200 C 107.829 65.200,110.800 62.229,110.800 61.647 C 110.800 61.401,111.070 61.200,111.400 61.200 C 111.730 61.200,112.000 60.930,112.000 60.600 C 112.000 60.270,112.270 60.000,112.600 60.000 C 112.930 60.000,113.200 59.730,113.200 59.400 C 113.200 59.070,113.459 58.800,113.775 58.800 C 114.131 58.800,114.397 58.305,114.475 57.500 C 114.544 56.785,114.805 56.238,115.056 56.285 C 115.657 56.398,115.907 54.954,115.929 51.243 C 115.951 47.616,115.706 46.400,114.957 46.400 C 114.650 46.400,114.400 46.040,114.400 45.600 C 114.400 45.156,114.133 44.800,113.800 44.800 C 113.470 44.800,113.200 44.530,113.200 44.200 C 113.200 43.870,112.949 43.600,112.643 43.600 C 112.336 43.600,111.982 43.330,111.855 43.000 C 111.672 42.522,110.809 42.400,107.600 42.400 C 104.391 42.400,103.528 42.522,103.345 43.000 C 103.218 43.330,102.864 43.600,102.557 43.600 C 102.251 43.600,102.000 43.870,102.000 44.200 C 102.000 44.530,101.730 44.800,101.400 44.800 C 101.067 44.800,100.800 45.156,100.800 45.600 C 100.800 46.040,100.619 46.400,100.398 46.400 C 99.868 46.400,93.200 53.061,93.200 53.590 C 93.200 53.816,92.944 54.000,92.632 54.000 C 92.319 54.000,91.945 54.540,91.800 55.200 C 91.655 55.860,91.281 56.400,90.968 56.400 C 90.656 56.400,90.400 56.670,90.400 57.000 C 90.400 57.330,90.130 57.600,89.800 57.600 C 89.470 57.600,89.200 57.870,89.200 58.200 C 89.200 58.595,88.805 58.800,88.043 58.800 C 87.383 58.800,86.787 58.542,86.655 58.200 C 86.521 57.849,85.921 57.600,85.213 57.600 L 84.000 57.600 84.000 55.047 C 84.000 52.880,84.114 52.463,84.755 52.296 C 86.111 51.941,85.919 41.200,84.557 41.200 C 84.250 41.200,84.000 40.930,84.000 40.600 C 84.000 40.270,83.730 40.000,83.400 40.000 C 83.070 40.000,82.800 39.730,82.800 39.400 C 82.800 39.070,82.595 38.800,82.344 38.800 C 82.093 38.800,81.684 38.521,81.435 38.181 C 80.597 37.034,72.325 36.908,73.033 38.053 C 73.169 38.273,72.902 38.553,72.440 38.674 C 71.978 38.794,71.600 39.142,71.600 39.447 C 71.600 39.751,71.330 40.000,71.000 40.000 C 70.670 40.000,70.400 40.270,70.400 40.600 C 70.400 40.930,70.130 41.200,69.800 41.200 C 69.431 41.200,69.200 41.575,69.200 42.171 C 69.200 42.706,68.912 43.431,68.560 43.782 C 68.209 44.134,67.825 45.137,67.708 46.011 C 67.577 46.985,67.283 47.600,66.947 47.600 C 66.546 47.600,66.400 48.229,66.400 49.957 C 66.400 51.684,66.239 52.376,65.800 52.545 C 65.391 52.702,65.200 53.342,65.200 54.558 C 65.200 56.517,64.885 56.739,62.500 56.463 C 61.729 56.374,61.200 56.086,61.200 55.756 C 61.200 55.361,60.650 55.196,59.300 55.188 C 57.815 55.178,57.553 55.087,58.100 54.768 C 59.086 54.194,59.182 40.000,58.200 40.000 C 57.870 40.000,57.600 39.730,57.600 39.400 C 57.600 39.070,57.370 38.800,57.089 38.800 C 56.808 38.800,56.270 38.440,55.893 38.000 C 55.457 37.491,54.713 37.200,53.847 37.200 C 53.006 37.200,52.398 36.971,52.255 36.600 C 52.129 36.270,51.771 36.000,51.462 36.000 C 51.152 36.000,50.674 36.270,50.400 36.600 M164.300 255.426 C 164.135 255.595,164.000 256.674,164.000 257.824 C 164.000 259.313,163.827 259.981,163.400 260.145 C 163.070 260.271,162.800 260.631,162.800 260.945 C 162.800 261.258,162.530 261.618,162.200 261.745 C 161.870 261.871,161.600 262.431,161.600 262.987 C 161.600 263.733,161.389 264.000,160.800 264.000 C 159.638 264.000,159.544 282.687,160.700 283.842 C 161.340 284.483,161.410 285.965,161.517 301.271 C 161.616 315.611,161.716 318.000,162.217 318.000 C 162.719 318.000,162.800 320.394,162.800 335.200 C 162.800 348.747,162.906 352.379,163.300 352.300 C 163.665 352.227,163.831 353.205,163.915 355.918 C 164.003 358.734,164.173 359.691,164.615 359.861 C 165.101 360.048,165.200 361.433,165.200 368.055 C 165.200 374.771,165.294 376.061,165.800 376.255 C 166.311 376.451,166.400 377.936,166.400 386.214 C 166.400 394.329,166.500 396.042,167.000 396.543 C 167.850 397.393,167.874 405.409,167.027 405.734 C 166.145 406.073,166.110 421.514,166.991 421.852 C 167.431 422.021,167.600 422.677,167.600 424.220 C 167.600 425.850,167.776 426.478,168.346 426.877 C 169.144 427.436,169.200 427.563,169.200 428.800 C 169.200 429.244,169.467 429.600,169.800 429.600 C 170.325 429.600,170.400 431.978,170.400 448.600 C 170.400 465.222,170.475 467.600,171.000 467.600 C 171.515 467.600,171.600 468.844,171.600 476.400 C 171.600 483.956,171.685 485.200,172.200 485.200 C 172.653 485.200,172.800 485.689,172.800 487.200 C 172.800 488.711,172.947 489.200,173.400 489.200 C 173.746 489.200,174.000 489.562,174.000 490.054 C 174.000 491.178,175.784 492.800,177.021 492.800 C 177.625 492.800,178.000 493.030,178.000 493.400 C 178.000 493.800,178.400 494.000,179.200 494.000 C 179.959 494.000,180.400 494.205,180.400 494.557 C 180.400 495.382,181.319 495.600,184.800 495.600 C 188.281 495.600,189.200 495.382,189.200 494.557 C 189.200 494.205,189.641 494.000,190.400 494.000 C 191.200 494.000,191.600 493.800,191.600 493.400 C 191.600 493.070,191.876 492.800,192.213 492.800 C 192.549 492.800,192.929 492.530,193.055 492.200 C 193.182 491.870,193.502 491.600,193.766 491.600 C 195.049 491.600,195.077 489.429,193.810 488.200 C 189.336 483.858,190.048 477.538,195.400 474.085 C 196.746 473.217,197.667 473.006,201.200 472.757 C 205.301 472.468,208.658 471.817,210.926 470.870 C 211.545 470.612,212.265 470.394,212.526 470.387 C 212.787 470.380,213.349 470.110,213.776 469.787 C 214.204 469.464,215.228 469.200,216.053 469.200 C 217.930 469.200,217.977 469.110,217.583 466.264 C 217.173 463.304,216.390 462.400,214.235 462.400 C 213.333 462.400,211.998 462.229,211.268 462.019 C 209.797 461.598,206.251 462.106,204.140 463.042 C 200.467 464.669,193.200 462.078,193.200 459.141 C 193.200 458.922,192.930 458.473,192.600 458.143 C 190.550 456.093,193.679 447.704,196.529 447.611 C 196.709 447.605,197.127 447.330,197.457 447.000 C 197.787 446.670,198.472 446.400,198.980 446.400 C 199.487 446.400,200.126 446.130,200.400 445.800 C 200.674 445.470,201.484 445.200,202.200 445.200 C 202.916 445.200,203.726 444.930,204.000 444.600 C 204.315 444.221,205.197 444.000,206.400 444.000 C 207.603 444.000,208.485 443.779,208.800 443.400 C 209.169 442.956,210.151 442.800,212.587 442.800 C 216.656 442.800,217.007 442.488,217.318 438.600 C 217.441 437.060,217.659 435.500,217.801 435.134 C 218.037 434.527,217.265 434.454,209.130 434.320 C 198.516 434.145,198.213 434.049,195.305 429.974 C 192.946 426.665,194.305 419.692,197.542 418.500 C 197.904 418.367,198.309 418.097,198.441 417.900 C 198.912 417.202,201.868 416.700,207.219 416.410 C 210.199 416.248,213.332 415.887,214.180 415.607 C 215.028 415.327,216.639 414.985,217.761 414.847 L 219.800 414.596 219.800 411.330 C 219.800 409.534,219.693 407.959,219.563 407.829 C 219.209 407.476,204.350 407.461,200.158 407.809 C 195.039 408.234,193.934 407.945,191.616 405.578 C 189.438 403.354,188.355 400.379,189.168 398.860 C 189.406 398.416,189.600 397.523,189.600 396.875 C 189.600 396.228,189.870 395.474,190.200 395.200 C 190.530 394.926,190.800 394.528,190.800 394.315 C 190.800 393.263,194.091 391.393,197.400 390.564 C 198.500 390.289,200.570 389.765,202.000 389.400 C 203.430 389.034,206.310 388.516,208.400 388.249 C 210.490 387.981,212.593 387.545,213.074 387.281 C 213.554 387.016,214.679 386.800,215.574 386.800 L 217.200 386.800 217.181 384.100 C 217.171 382.615,216.945 380.230,216.680 378.800 L 216.197 376.200 212.598 375.951 C 210.619 375.815,207.740 375.505,206.200 375.264 C 204.660 375.023,201.291 374.820,198.712 374.813 C 187.761 374.783,183.034 366.410,190.077 359.521 C 192.006 357.634,193.366 357.377,204.459 356.793 C 209.156 356.546,213.675 356.148,214.500 355.908 L 216.000 355.472 216.000 351.804 C 216.000 346.584,216.436 346.667,195.272 347.852 C 190.453 348.121,189.950 348.009,187.306 346.065 C 185.017 344.383,184.218 342.612,184.268 339.329 C 184.359 333.379,187.736 330.741,196.200 330.011 C 198.180 329.840,200.340 329.516,201.000 329.290 C 204.702 328.026,206.493 327.600,208.095 327.600 C 209.078 327.600,210.989 327.484,212.341 327.343 L 214.800 327.086 214.800 325.215 L 214.800 323.343 212.339 323.275 C 210.985 323.238,208.510 322.821,206.839 322.349 C 204.007 321.549,203.283 321.511,196.200 321.791 C 187.451 322.138,185.533 322.107,184.196 321.599 C 182.634 321.005,180.086 318.175,179.628 316.526 C 177.833 310.060,181.482 305.420,188.996 304.615 C 190.503 304.454,192.021 304.167,192.368 303.977 C 192.992 303.637,195.091 303.125,199.000 302.359 C 200.100 302.143,203.700 302.019,207.000 302.083 L 213.000 302.200 213.116 298.900 C 213.213 296.145,213.131 295.600,212.616 295.600 C 212.277 295.600,212.000 295.330,212.000 295.000 C 212.000 294.670,211.730 294.400,211.400 294.400 C 211.070 294.400,210.800 294.155,210.800 293.856 C 210.800 292.671,203.243 290.960,202.600 292.000 C 202.283 292.513,197.542 292.487,195.200 291.960 C 194.210 291.737,191.960 291.315,190.200 291.022 C 180.334 289.379,181.405 290.446,179.994 280.853 C 179.788 279.452,179.455 278.102,179.253 277.853 C 178.405 276.805,177.425 271.934,177.291 268.100 C 177.213 265.845,176.980 264.000,176.774 264.000 C 176.568 264.000,176.400 263.486,176.400 262.858 C 176.400 261.914,176.176 261.651,175.110 261.346 C 174.035 261.037,173.734 260.678,173.304 259.188 C 172.361 255.924,171.758 255.485,167.946 255.290 C 166.106 255.195,164.465 255.256,164.300 255.426 " stroke="none" fill="#b4e364" fill-rule="evenodd"></path><path id="path1" d="M190.600 221.292 C 184.231 223.450,184.001 223.892,183.629 234.684 C 183.435 240.308,183.138 243.897,182.793 244.800 C 181.838 247.296,180.676 249.768,179.774 251.219 C 178.985 252.489,178.954 252.720,179.478 253.419 C 180.352 254.586,179.997 258.369,178.879 259.790 C 178.318 260.504,178.000 261.467,178.000 262.454 C 178.000 263.304,177.808 264.000,177.574 264.000 C 176.427 264.000,177.904 276.188,179.253 277.853 C 179.455 278.102,179.788 279.452,179.994 280.853 C 181.405 290.446,180.334 289.379,190.200 291.022 C 191.960 291.315,194.210 291.737,195.200 291.960 C 197.542 292.487,202.283 292.513,202.600 292.000 C 202.970 291.402,205.705 291.518,207.338 292.200 C 210.512 293.526,212.569 293.064,214.021 290.700 C 215.641 288.063,220.116 282.910,222.114 281.383 C 224.388 279.644,224.400 279.042,222.348 269.600 C 222.132 268.610,221.792 267.039,221.592 266.108 C 221.267 264.601,221.119 260.750,221.257 257.418 C 221.284 256.768,221.077 256.159,220.797 256.066 C 217.895 255.098,215.475 250.580,214.842 244.947 C 214.598 242.776,214.234 239.920,214.033 238.600 C 213.832 237.280,213.652 235.282,213.634 234.160 C 213.612 232.833,213.268 231.494,212.650 230.333 C 212.128 229.350,211.567 228.109,211.403 227.573 C 210.945 226.077,209.985 225.200,208.802 225.200 C 208.211 225.200,206.124 224.662,204.164 224.005 C 202.204 223.347,200.231 222.807,199.780 222.805 C 199.329 222.802,198.770 222.610,198.537 222.377 C 198.138 221.978,193.067 220.750,192.200 220.843 C 191.980 220.866,191.260 221.068,190.600 221.292 M213.783 270.443 C 217.709 272.759,215.616 278.339,210.800 278.398 C 209.590 278.413,206.800 278.686,204.600 279.005 C 197.343 280.056,192.064 279.833,190.326 278.400 C 186.643 275.364,188.644 270.263,193.800 269.544 C 197.970 268.962,212.372 269.610,213.783 270.443 " stroke="none" fill="#4e748b" fill-rule="evenodd"></path><path id="path2" d="M186.800 178.600 C 186.800 179.098,186.030 179.200,182.270 179.200 C 177.212 179.200,177.068 179.270,175.410 182.542 C 173.828 185.665,169.473 188.393,166.049 188.408 C 162.820 188.421,160.222 189.296,160.062 190.424 C 159.985 190.961,159.670 191.544,159.362 191.720 C 159.053 191.896,158.800 192.571,158.800 193.220 C 158.800 194.002,158.598 194.400,158.200 194.400 C 157.735 194.400,157.600 194.929,157.600 196.757 C 157.600 198.484,157.439 199.176,157.000 199.345 C 156.491 199.540,156.400 200.969,156.400 208.800 C 156.400 216.631,156.491 218.060,157.000 218.255 C 157.506 218.449,157.600 219.740,157.600 226.455 C 157.600 233.171,157.694 234.461,158.200 234.655 C 158.689 234.843,158.800 235.805,158.800 239.843 C 158.800 243.983,158.899 244.800,159.400 244.800 C 159.845 244.800,160.000 245.268,160.000 246.613 C 160.000 247.790,160.195 248.500,160.555 248.638 C 160.860 248.755,161.216 249.380,161.345 250.026 C 161.482 250.709,161.835 251.200,162.190 251.200 C 162.525 251.200,162.800 251.470,162.800 251.800 C 162.800 252.130,163.070 252.400,163.400 252.400 C 163.730 252.400,164.000 252.670,164.000 253.000 C 164.000 253.330,164.270 253.600,164.600 253.600 C 164.930 253.600,165.200 253.867,165.200 254.192 C 165.200 254.839,165.872 255.037,169.192 255.366 C 171.711 255.617,172.478 256.329,173.303 259.184 C 173.850 261.080,174.721 261.602,176.795 261.276 C 178.794 260.961,180.170 256.556,179.168 253.681 C 178.800 252.624,178.887 252.142,179.768 250.388 C 180.336 249.259,180.800 248.101,180.800 247.816 C 180.800 247.531,181.070 247.074,181.400 246.800 C 181.730 246.526,182.000 245.946,182.000 245.511 C 182.000 245.077,182.260 244.154,182.579 243.460 C 183.009 242.523,183.189 240.097,183.279 234.000 C 183.381 227.087,183.506 225.651,184.074 224.848 C 184.982 223.566,188.361 221.200,189.284 221.200 C 189.693 221.200,190.473 220.908,191.017 220.552 C 192.070 219.862,195.984 220.478,199.000 221.809 C 199.660 222.100,200.867 222.449,201.683 222.584 C 202.499 222.719,203.669 223.092,204.283 223.412 C 204.897 223.733,205.732 223.996,206.138 223.998 C 208.027 224.004,211.166 225.265,211.429 226.123 C 211.577 226.605,212.216 228.053,212.849 229.341 C 213.639 230.949,214.009 232.327,214.029 233.741 C 214.045 234.873,214.233 236.790,214.447 238.000 C 214.660 239.210,215.007 241.910,215.217 244.000 C 215.426 246.090,215.755 248.076,215.948 248.413 C 216.141 248.750,216.424 249.601,216.579 250.303 C 216.950 251.995,220.204 255.605,221.337 255.583 C 221.887 255.572,222.750 254.852,223.717 253.599 C 225.139 251.754,229.590 248.000,230.355 248.000 C 230.546 248.000,230.901 247.760,231.144 247.467 C 231.387 247.174,232.624 246.609,233.893 246.211 C 238.375 244.806,238.784 244.500,238.794 242.543 C 238.797 241.799,239.045 241.192,239.400 241.055 C 239.871 240.874,240.000 240.059,240.000 237.255 C 240.000 234.451,240.129 233.636,240.600 233.455 C 241.042 233.286,241.200 232.588,241.200 230.813 C 241.200 228.935,241.333 228.400,241.800 228.400 C 242.280 228.400,242.400 227.799,242.400 225.387 C 242.400 223.079,242.260 222.321,241.800 222.145 C 241.320 221.960,241.200 221.082,241.200 217.745 C 241.200 214.407,241.080 213.529,240.600 213.345 C 240.108 213.156,240.000 212.149,240.000 207.745 C 240.000 203.529,239.881 202.329,239.444 202.161 C 239.093 202.027,238.786 200.996,238.612 199.374 C 238.416 197.546,238.172 196.800,237.768 196.800 C 237.404 196.800,237.200 196.370,237.200 195.600 C 237.200 194.824,236.997 194.400,236.625 194.400 C 236.269 194.400,236.003 193.905,235.925 193.100 L 235.800 191.800 232.600 191.928 C 228.007 192.112,225.070 190.731,223.817 187.800 C 223.483 187.017,222.627 186.253,221.354 185.600 C 219.007 184.396,217.392 183.309,216.156 182.100 C 215.259 181.222,215.020 181.200,206.512 181.200 C 198.552 181.200,197.657 181.130,196.296 180.400 C 195.475 179.960,194.577 179.596,194.301 179.591 C 194.026 179.586,193.350 179.230,192.800 178.800 C 191.507 177.788,186.800 177.631,186.800 178.600 M161.324 306.200 C 161.326 307.520,161.401 308.012,161.490 307.293 C 161.579 306.574,161.577 305.494,161.486 304.893 C 161.395 304.292,161.322 304.880,161.324 306.200 " stroke="none" fill="#fbbb04" fill-rule="evenodd"></path><path id="path3" d="M313.345 36.600 C 313.188 37.007,312.550 37.200,311.357 37.200 C 309.886 37.200,309.600 37.326,309.600 37.975 C 309.600 38.556,309.276 38.781,308.300 38.875 C 307.217 38.979,306.979 39.183,306.873 40.100 C 306.801 40.730,306.502 41.200,306.173 41.200 C 305.692 41.200,305.600 42.705,305.600 50.600 L 305.600 60.000 304.400 60.000 C 303.600 60.000,303.200 60.200,303.200 60.600 C 303.200 60.930,302.930 61.200,302.600 61.200 C 302.166 61.200,302.000 60.754,302.000 59.587 C 302.000 58.523,301.796 57.897,301.400 57.745 C 301.006 57.593,300.800 56.968,300.800 55.920 C 300.800 54.662,300.631 54.281,300.000 54.116 C 299.399 53.959,299.200 53.570,299.200 52.553 C 299.200 51.617,299.015 51.200,298.600 51.200 C 298.200 51.200,298.000 50.800,298.000 50.000 C 298.000 49.200,297.800 48.800,297.400 48.800 C 297.070 48.800,296.800 48.530,296.800 48.200 C 296.800 47.870,296.530 47.600,296.200 47.600 C 295.870 47.600,295.600 47.330,295.600 47.000 C 295.600 46.670,295.330 46.400,295.000 46.400 C 294.667 46.400,294.400 46.044,294.400 45.600 C 294.400 45.148,294.133 44.800,293.787 44.800 C 293.451 44.800,293.071 44.530,292.945 44.200 C 292.189 42.231,281.636 43.813,281.607 45.900 C 281.603 46.175,281.330 46.400,281.000 46.400 C 280.600 46.400,280.400 46.800,280.400 47.600 C 280.400 48.400,280.200 48.800,279.800 48.800 C 279.309 48.800,279.200 49.489,279.200 52.600 C 279.200 55.711,279.309 56.400,279.800 56.400 C 280.200 56.400,280.400 56.800,280.400 57.600 C 280.400 58.400,280.600 58.800,281.000 58.800 C 281.330 58.800,281.600 59.070,281.600 59.400 C 281.600 59.730,281.870 60.000,282.200 60.000 C 282.645 60.000,282.800 60.468,282.800 61.813 C 282.800 63.055,282.989 63.698,283.400 63.855 C 284.701 64.354,284.181 67.600,282.800 67.600 C 282.000 67.600,281.600 67.800,281.600 68.200 C 281.600 68.579,281.218 68.800,280.563 68.800 C 279.862 68.800,279.457 69.059,279.316 69.600 C 278.896 71.205,276.400 70.691,276.400 69.000 C 276.400 68.022,276.219 67.600,275.800 67.600 C 275.470 67.600,275.200 67.330,275.200 67.000 C 275.200 66.670,274.930 66.400,274.600 66.400 C 274.270 66.400,274.000 66.130,274.000 65.800 C 274.000 65.470,273.730 65.200,273.400 65.200 C 273.070 65.200,272.800 64.930,272.800 64.600 C 272.800 64.270,272.530 64.000,272.200 64.000 C 271.800 64.000,271.600 63.600,271.600 62.800 C 271.600 62.045,271.395 61.600,271.047 61.600 C 270.742 61.600,270.399 61.240,270.284 60.800 C 270.169 60.360,269.788 60.000,269.437 60.000 C 269.087 60.000,268.800 59.730,268.800 59.400 C 268.800 59.070,268.530 58.800,268.200 58.800 C 267.870 58.800,267.600 58.530,267.600 58.200 C 267.600 57.870,267.330 57.600,267.000 57.600 C 266.670 57.600,266.400 57.330,266.400 57.000 C 266.400 56.499,265.578 56.400,261.400 56.400 C 257.222 56.400,256.400 56.499,256.400 57.000 C 256.400 57.330,256.130 57.600,255.800 57.600 C 255.470 57.600,255.200 57.870,255.200 58.200 C 255.200 58.530,254.930 58.800,254.600 58.800 C 254.229 58.800,254.000 59.176,254.000 59.786 C 254.000 60.362,253.668 60.950,253.200 61.200 C 252.179 61.746,251.954 68.800,252.957 68.800 C 253.569 68.800,254.000 69.641,254.000 70.833 C 254.000 71.255,254.270 71.600,254.600 71.600 C 254.930 71.600,255.200 71.870,255.200 72.200 C 255.200 72.530,255.470 72.800,255.800 72.800 C 256.200 72.800,256.400 73.200,256.400 74.000 C 256.400 74.800,256.600 75.200,257.000 75.200 C 257.330 75.200,257.600 75.470,257.600 75.800 C 257.600 76.130,257.870 76.400,258.200 76.400 C 258.530 76.400,258.800 76.586,258.800 76.813 C 258.800 77.041,259.340 77.755,260.000 78.400 C 261.315 79.685,261.529 80.400,260.600 80.400 C 260.270 80.400,260.000 80.670,260.000 81.000 C 260.000 81.400,259.600 81.600,258.800 81.600 C 258.000 81.600,257.600 81.800,257.600 82.200 C 257.600 82.530,257.330 82.800,257.000 82.800 C 256.670 82.800,256.400 83.070,256.400 83.400 C 256.400 83.730,256.130 84.000,255.800 84.000 C 255.467 84.000,255.200 84.356,255.200 84.800 C 255.200 85.333,254.933 85.600,254.400 85.600 C 253.867 85.600,253.600 85.333,253.600 84.800 C 253.600 84.356,253.333 84.000,253.000 84.000 C 252.600 84.000,252.400 83.600,252.400 82.800 C 252.400 82.000,252.200 81.600,251.800 81.600 C 251.470 81.600,251.200 81.330,251.200 81.000 C 251.200 80.670,250.930 80.400,250.600 80.400 C 250.270 80.400,250.000 80.130,250.000 79.800 C 250.000 79.470,249.730 79.200,249.400 79.200 C 249.070 79.200,248.800 78.930,248.800 78.600 C 248.800 78.181,248.378 78.000,247.400 78.000 C 246.267 78.000,246.000 77.848,246.000 77.200 C 246.000 76.521,245.733 76.400,244.243 76.400 C 243.050 76.400,242.412 76.207,242.255 75.800 C 242.129 75.470,241.569 75.200,241.013 75.200 C 240.379 75.200,240.000 75.425,240.000 75.800 C 240.000 76.216,239.581 76.400,238.633 76.400 C 236.871 76.400,236.000 76.745,236.000 77.443 C 236.000 77.749,235.730 78.000,235.400 78.000 C 235.070 78.000,234.800 78.270,234.800 78.600 C 234.800 78.930,234.530 79.200,234.200 79.200 C 233.756 79.200,233.600 79.667,233.600 81.000 C 233.600 82.333,233.444 82.800,233.000 82.800 C 232.528 82.800,232.400 83.356,232.400 85.400 C 232.400 87.444,232.528 88.000,233.000 88.000 C 233.400 88.000,233.600 88.400,233.600 89.200 C 233.600 90.000,233.800 90.400,234.200 90.400 C 234.600 90.400,234.800 90.800,234.800 91.600 C 234.800 92.400,235.000 92.800,235.400 92.800 C 235.730 92.800,236.000 93.076,236.000 93.413 C 236.000 93.749,236.270 94.129,236.600 94.255 C 236.930 94.382,237.200 94.933,237.200 95.480 C 237.200 96.138,237.471 96.546,238.000 96.684 C 238.440 96.799,238.800 97.142,238.800 97.447 C 238.800 97.751,239.070 98.000,239.400 98.000 C 239.797 98.000,240.000 98.397,240.000 99.171 C 240.000 99.949,240.234 100.403,240.700 100.524 C 241.367 100.698,241.367 100.709,240.700 100.754 C 240.199 100.787,240.000 101.141,240.000 102.000 C 240.000 102.933,239.822 103.200,239.200 103.200 C 238.756 103.200,238.400 102.933,238.400 102.600 C 238.400 102.200,238.000 102.000,237.200 102.000 C 236.400 102.000,236.000 101.800,236.000 101.400 C 236.000 101.000,235.600 100.800,234.800 100.800 C 233.867 100.800,233.600 100.622,233.600 100.000 C 233.600 99.556,233.333 99.200,233.000 99.200 C 232.670 99.200,232.400 98.930,232.400 98.600 C 232.400 98.270,232.149 98.000,231.843 98.000 C 231.536 98.000,231.182 97.730,231.055 97.400 C 230.921 97.049,230.321 96.800,229.613 96.800 C 228.801 96.800,228.400 96.601,228.400 96.200 C 228.400 95.800,228.000 95.600,227.200 95.600 C 226.400 95.600,226.000 95.400,226.000 95.000 C 226.000 94.600,225.600 94.400,224.800 94.400 C 224.000 94.400,223.600 94.600,223.600 95.000 C 223.600 95.472,223.044 95.600,221.000 95.600 C 218.956 95.600,218.400 95.728,218.400 96.200 C 218.400 96.530,218.130 96.800,217.800 96.800 C 217.470 96.800,217.200 97.070,217.200 97.400 C 217.200 97.730,216.930 98.000,216.600 98.000 C 216.270 98.000,216.000 98.227,216.000 98.504 C 216.000 98.781,215.640 99.232,215.200 99.507 C 214.502 99.943,214.400 100.440,214.400 103.403 C 214.400 106.533,214.463 106.800,215.200 106.800 C 215.848 106.800,216.000 107.067,216.000 108.200 C 216.000 109.178,216.181 109.600,216.600 109.600 C 216.930 109.600,217.200 109.870,217.200 110.200 C 217.200 110.530,217.470 110.800,217.800 110.800 C 218.130 110.800,218.400 111.070,218.400 111.400 C 218.400 111.730,218.670 112.000,219.000 112.000 C 219.330 112.000,219.600 112.270,219.600 112.600 C 219.600 112.930,219.870 113.200,220.200 113.200 C 220.530 113.200,220.800 113.470,220.800 113.800 C 220.800 114.219,221.222 114.400,222.200 114.400 C 223.178 114.400,223.600 114.581,223.600 115.000 C 223.600 115.330,223.870 115.600,224.200 115.600 C 224.533 115.600,224.800 115.956,224.800 116.400 C 224.800 116.844,225.067 117.200,225.400 117.200 C 225.730 117.200,226.000 117.470,226.000 117.800 C 226.000 118.200,226.400 118.400,227.200 118.400 C 228.000 118.400,228.400 118.600,228.400 119.000 C 228.400 119.330,228.670 119.600,229.000 119.600 C 229.330 119.600,229.600 119.851,229.600 120.157 C 229.600 120.464,229.330 120.818,229.000 120.945 C 228.649 121.079,228.400 121.679,228.400 122.387 C 228.400 123.863,226.723 124.152,226.000 122.800 C 225.720 122.276,225.162 122.000,224.386 122.000 C 223.598 122.000,223.200 121.798,223.200 121.400 C 223.200 121.000,222.800 120.800,222.000 120.800 C 221.200 120.800,220.800 120.600,220.800 120.200 C 220.800 119.870,220.530 119.600,220.200 119.600 C 219.870 119.600,219.600 119.330,219.600 119.000 C 219.600 118.600,219.200 118.400,218.400 118.400 C 217.600 118.400,217.200 118.200,217.200 117.800 C 217.200 117.297,216.356 117.200,212.000 117.200 C 207.644 117.200,206.800 117.297,206.800 117.800 C 206.800 118.200,206.400 118.400,205.600 118.400 C 204.800 118.400,204.400 118.600,204.400 119.000 C 204.400 119.330,204.130 119.600,203.800 119.600 C 203.405 119.600,203.200 119.995,203.200 120.757 C 203.200 121.417,202.942 122.013,202.600 122.145 C 202.140 122.321,202.000 123.079,202.000 125.387 C 202.000 127.799,202.120 128.400,202.600 128.400 C 203.000 128.400,203.200 128.800,203.200 129.600 C 203.200 130.400,203.400 130.800,203.800 130.800 C 204.133 130.800,204.400 131.156,204.400 131.600 C 204.400 132.044,204.667 132.400,205.000 132.400 C 205.330 132.400,205.600 132.670,205.600 133.000 C 205.600 133.419,206.022 133.600,207.000 133.600 C 207.978 133.600,208.400 133.781,208.400 134.200 C 208.400 134.530,208.670 134.800,209.000 134.800 C 209.330 134.800,209.600 135.070,209.600 135.400 C 209.600 135.800,210.000 136.000,210.800 136.000 C 211.600 136.000,212.000 136.200,212.000 136.600 C 212.000 137.000,212.400 137.200,213.200 137.200 C 214.000 137.200,214.400 137.400,214.400 137.800 C 214.400 138.130,214.739 138.400,215.153 138.400 C 215.570 138.400,216.000 138.757,216.116 139.200 C 216.257 139.741,216.662 140.000,217.363 140.000 C 218.018 140.000,218.400 140.221,218.400 140.600 C 218.400 141.053,217.911 141.200,216.400 141.200 C 214.889 141.200,214.400 141.053,214.400 140.600 C 214.400 140.133,213.867 140.000,212.000 140.000 C 210.223 140.000,209.600 139.856,209.600 139.447 C 209.600 138.840,208.413 138.414,206.700 138.405 C 205.991 138.402,205.600 138.187,205.600 137.800 C 205.600 137.356,205.133 137.200,203.800 137.200 C 202.467 137.200,202.000 137.356,202.000 137.800 C 202.000 138.216,201.581 138.400,200.633 138.400 C 198.871 138.400,198.000 138.745,198.000 139.443 C 198.000 139.749,197.730 140.000,197.400 140.000 C 197.070 140.000,196.800 140.270,196.800 140.600 C 196.800 140.930,196.530 141.200,196.200 141.200 C 195.870 141.200,195.600 141.470,195.600 141.800 C 195.600 142.130,195.330 142.400,195.000 142.400 C 194.503 142.400,194.400 143.156,194.400 146.800 C 194.400 150.444,194.503 151.200,195.000 151.200 C 195.330 151.200,195.600 151.470,195.600 151.800 C 195.600 152.130,195.870 152.400,196.200 152.400 C 196.530 152.400,196.800 152.670,196.800 153.000 C 196.800 153.330,197.049 153.600,197.353 153.600 C 197.658 153.600,198.001 153.960,198.116 154.400 C 198.268 154.983,198.662 155.200,199.563 155.200 C 200.396 155.200,200.800 155.396,200.800 155.800 C 200.800 156.244,201.267 156.400,202.600 156.400 C 203.933 156.400,204.400 156.556,204.400 157.000 C 204.400 157.453,204.889 157.600,206.400 157.600 C 207.911 157.600,208.400 157.747,208.400 158.200 C 208.400 158.600,208.800 158.800,209.600 158.800 C 210.400 158.800,210.800 159.000,210.800 159.400 C 210.800 159.844,211.267 160.000,212.600 160.000 C 214.390 160.000,214.400 160.007,214.400 161.400 C 214.400 162.378,214.219 162.800,213.800 162.800 C 213.470 162.800,213.200 163.070,213.200 163.400 C 213.200 163.914,212.022 164.000,205.000 164.000 C 197.978 164.000,196.800 164.086,196.800 164.600 C 196.800 165.000,196.400 165.200,195.600 165.200 C 194.800 165.200,194.400 165.400,194.400 165.800 C 194.400 166.130,194.130 166.400,193.800 166.400 C 193.470 166.400,193.200 166.649,193.200 166.953 C 193.200 167.258,192.840 167.601,192.400 167.716 C 191.817 167.868,191.600 168.262,191.600 169.163 C 191.600 169.996,191.404 170.400,191.000 170.400 C 190.512 170.400,190.400 171.058,190.400 173.925 L 190.400 177.451 191.800 178.000 C 192.570 178.302,193.200 178.689,193.200 178.859 C 193.200 179.030,193.912 179.361,194.783 179.595 C 195.654 179.830,196.474 180.197,196.607 180.411 C 196.751 180.644,200.408 180.800,205.737 180.800 L 214.627 180.800 217.284 182.800 C 218.745 183.900,220.123 184.800,220.347 184.800 C 221.295 184.800,223.551 186.516,223.986 187.567 C 225.217 190.538,228.760 192.158,233.136 191.751 C 235.150 191.564,236.000 191.324,236.000 190.943 C 236.000 190.612,236.449 190.400,237.150 190.400 C 238.710 190.400,238.802 189.770,238.783 179.279 C 238.769 171.910,238.857 170.600,239.383 170.305 C 239.831 170.055,240.000 169.309,240.000 167.580 C 240.000 165.731,240.134 165.200,240.600 165.200 C 241.108 165.200,241.200 164.222,241.200 158.800 C 241.200 153.378,241.292 152.400,241.800 152.400 C 242.200 152.400,242.400 152.000,242.400 151.200 C 242.400 150.400,242.600 150.000,243.000 150.000 C 243.400 150.000,243.600 149.600,243.600 148.800 C 243.600 148.000,243.800 147.600,244.200 147.600 C 244.619 147.600,244.800 147.178,244.800 146.200 C 244.800 145.222,244.981 144.800,245.400 144.800 C 245.730 144.800,246.000 144.530,246.000 144.200 C 246.000 143.867,246.356 143.600,246.800 143.600 C 247.422 143.600,247.600 143.333,247.600 142.400 C 247.600 141.600,247.800 141.200,248.200 141.200 C 248.619 141.200,248.800 140.778,248.800 139.800 C 248.800 138.822,248.981 138.400,249.400 138.400 C 249.730 138.400,250.000 138.130,250.000 137.800 C 250.000 137.470,250.270 137.200,250.600 137.200 C 251.000 137.200,251.200 136.800,251.200 136.000 C 251.200 135.200,251.400 134.800,251.800 134.800 C 252.130 134.800,252.400 134.530,252.400 134.200 C 252.400 133.870,252.670 133.600,253.000 133.600 C 253.415 133.600,253.600 133.183,253.600 132.247 C 253.600 131.230,253.799 130.841,254.400 130.684 C 254.941 130.543,255.200 130.138,255.200 129.437 C 255.200 128.782,255.421 128.400,255.800 128.400 C 256.200 128.400,256.400 128.000,256.400 127.200 C 256.400 126.400,256.600 126.000,257.000 126.000 C 257.419 126.000,257.600 125.578,257.600 124.600 C 257.600 123.622,257.781 123.200,258.200 123.200 C 258.600 123.200,258.800 122.800,258.800 122.000 C 258.800 121.200,259.000 120.800,259.400 120.800 C 259.730 120.800,260.000 120.530,260.000 120.200 C 260.000 119.870,260.270 119.600,260.600 119.600 C 260.995 119.600,261.200 119.205,261.200 118.447 C 261.200 117.630,261.433 117.232,262.000 117.084 C 262.583 116.932,262.800 116.538,262.800 115.637 C 262.800 114.804,262.996 114.400,263.400 114.400 C 263.800 114.400,264.000 114.000,264.000 113.200 C 264.000 112.400,264.200 112.000,264.600 112.000 C 264.930 112.000,265.200 111.730,265.200 111.400 C 265.200 111.070,265.470 110.800,265.800 110.800 C 266.130 110.800,266.400 110.530,266.400 110.200 C 266.400 109.870,266.670 109.600,267.000 109.600 C 267.333 109.600,267.600 109.244,267.600 108.800 C 267.600 108.356,267.867 108.000,268.200 108.000 C 268.530 108.000,268.800 107.730,268.800 107.400 C 268.800 107.067,269.156 106.800,269.600 106.800 C 270.044 106.800,270.400 106.533,270.400 106.200 C 270.400 105.870,270.670 105.600,271.000 105.600 C 271.330 105.600,271.600 105.330,271.600 105.000 C 271.600 104.670,271.870 104.400,272.200 104.400 C 272.530 104.400,272.800 104.130,272.800 103.800 C 272.800 103.400,273.200 103.200,274.000 103.200 C 274.800 103.200,275.200 103.000,275.200 102.600 C 275.200 102.270,275.470 102.000,275.800 102.000 C 276.130 102.000,276.400 101.750,276.400 101.445 C 276.400 101.126,276.998 100.777,277.800 100.626 C 278.638 100.469,279.200 100.130,279.200 99.782 C 279.200 99.462,279.470 99.200,279.800 99.200 C 280.130 99.200,280.400 98.930,280.400 98.600 C 280.400 98.200,280.800 98.000,281.600 98.000 C 282.400 98.000,282.800 97.800,282.800 97.400 C 282.800 96.999,283.201 96.800,284.013 96.800 C 284.721 96.800,285.321 96.551,285.455 96.200 C 285.587 95.858,286.183 95.600,286.843 95.600 C 287.605 95.600,288.000 95.395,288.000 95.000 C 288.000 94.600,288.400 94.400,289.200 94.400 C 290.000 94.400,290.400 94.200,290.400 93.800 C 290.400 93.470,290.745 93.200,291.167 93.200 C 292.359 93.200,293.200 92.769,293.200 92.157 C 293.200 91.805,293.641 91.600,294.400 91.600 C 295.200 91.600,295.600 91.400,295.600 91.000 C 295.600 90.556,296.067 90.400,297.400 90.400 C 298.733 90.400,299.200 90.244,299.200 89.800 C 299.200 89.381,299.622 89.200,300.600 89.200 C 301.578 89.200,302.000 89.019,302.000 88.600 C 302.000 88.156,302.467 88.000,303.800 88.000 C 305.133 88.000,305.600 87.844,305.600 87.400 C 305.600 86.955,306.068 86.800,307.413 86.800 C 308.655 86.800,309.298 86.611,309.455 86.200 C 309.607 85.806,310.232 85.600,311.280 85.600 C 312.538 85.600,312.919 85.431,313.084 84.800 C 313.257 84.138,313.630 84.000,315.247 84.000 C 316.716 84.000,317.200 83.851,317.200 83.400 C 317.200 82.956,317.667 82.800,319.000 82.800 C 320.333 82.800,320.800 82.644,320.800 82.200 C 320.800 81.728,321.356 81.600,323.400 81.600 C 325.444 81.600,326.000 81.472,326.000 81.000 C 326.000 80.511,326.668 80.400,329.613 80.400 C 332.455 80.400,333.274 80.272,333.455 79.800 C 333.643 79.311,334.605 79.200,338.643 79.200 C 342.783 79.200,343.600 79.101,343.600 78.600 C 343.600 78.148,344.085 78.000,345.567 78.000 C 347.908 78.000,348.800 77.712,348.800 76.957 C 348.800 76.651,349.070 76.400,349.400 76.400 C 349.730 76.400,350.000 76.130,350.000 75.800 C 350.000 75.470,350.270 75.200,350.600 75.200 C 350.930 75.200,351.200 74.930,351.200 74.600 C 351.200 74.270,351.470 74.000,351.800 74.000 C 352.130 74.000,352.400 73.730,352.400 73.400 C 352.400 73.070,352.670 72.800,353.000 72.800 C 353.453 72.800,353.600 72.311,353.600 70.800 C 353.600 69.067,353.707 68.800,354.400 68.800 C 355.141 68.800,355.200 68.533,355.200 65.200 C 355.200 61.867,355.141 61.600,354.400 61.600 C 353.707 61.600,353.600 61.333,353.600 59.600 C 353.600 58.089,353.453 57.600,353.000 57.600 C 352.670 57.600,352.400 57.330,352.400 57.000 C 352.400 56.670,352.130 56.400,351.800 56.400 C 351.470 56.400,351.200 56.130,351.200 55.800 C 351.200 55.470,350.930 55.200,350.600 55.200 C 350.270 55.200,350.000 54.930,350.000 54.600 C 350.000 54.266,349.644 54.000,349.196 54.000 C 348.754 54.000,348.084 53.640,347.707 53.200 C 346.788 52.127,332.400 51.939,332.400 53.000 C 332.400 53.481,331.796 53.600,329.363 53.600 C 326.662 53.600,326.302 53.689,326.116 54.400 C 325.968 54.967,325.570 55.200,324.753 55.200 L 323.600 55.200 323.595 49.100 C 323.589 42.530,323.413 41.200,322.553 41.200 C 322.249 41.200,322.000 40.930,322.000 40.600 C 322.000 40.270,321.730 40.000,321.400 40.000 C 321.070 40.000,320.800 39.730,320.800 39.400 C 320.800 39.070,320.551 38.800,320.247 38.800 C 319.942 38.800,319.599 38.440,319.484 38.000 C 319.313 37.346,318.938 37.200,317.437 37.200 C 316.071 37.200,315.600 37.046,315.600 36.600 C 315.600 36.225,315.221 36.000,314.587 36.000 C 314.031 36.000,313.471 36.270,313.345 36.600 M237.045 245.089 C 236.886 245.247,235.722 245.751,234.459 246.209 C 231.636 247.231,226.840 250.399,225.096 252.394 C 222.018 255.914,221.677 256.448,221.449 258.092 C 220.938 261.780,221.169 264.032,222.793 271.200 C 223.267 273.290,223.752 276.016,223.872 277.258 L 224.090 279.516 221.127 282.458 C 218.045 285.518,215.782 288.200,213.833 291.100 C 213.205 292.035,212.536 292.800,212.346 292.800 C 211.755 292.800,211.967 294.012,212.600 294.255 C 213.007 294.412,213.200 295.050,213.200 296.243 C 213.200 297.538,213.358 298.000,213.800 298.000 C 214.130 298.000,214.400 298.270,214.400 298.600 C 214.400 298.933,214.756 299.200,215.200 299.200 C 215.893 299.200,216.000 299.467,216.000 301.200 C 216.000 302.933,215.893 303.200,215.200 303.200 C 214.756 303.200,214.400 302.933,214.400 302.600 C 214.400 301.750,213.645 301.856,212.864 302.816 C 212.287 303.525,212.035 303.574,210.943 303.192 C 208.349 302.284,198.075 303.134,193.686 304.620 C 192.743 304.939,191.253 305.200,190.373 305.200 C 189.494 305.200,188.128 305.470,187.338 305.800 C 186.549 306.130,185.512 306.400,185.034 306.400 C 184.165 306.400,181.473 308.949,180.499 310.695 C 179.112 313.181,181.267 320.000,183.440 320.000 C 183.694 320.000,184.142 320.290,184.436 320.644 C 184.983 321.302,189.515 321.276,198.418 320.563 C 201.412 320.323,207.645 321.168,209.261 322.032 C 209.649 322.240,211.074 322.441,212.427 322.478 C 215.197 322.554,216.000 323.076,216.000 324.803 C 216.000 327.416,215.440 327.999,212.910 328.014 C 211.639 328.022,209.430 328.285,208.000 328.600 C 206.570 328.915,204.765 329.178,203.989 329.186 C 203.213 329.194,202.223 329.448,201.789 329.752 C 201.355 330.056,200.190 330.391,199.200 330.497 C 191.529 331.318,188.611 332.170,187.000 334.061 C 183.785 337.834,184.286 342.737,188.185 345.671 L 189.800 346.887 199.200 346.659 C 217.011 346.229,216.817 346.167,216.901 352.311 C 216.962 356.767,216.935 356.788,210.745 357.254 C 208.025 357.459,204.180 357.785,202.200 357.978 C 200.220 358.172,197.309 358.346,195.731 358.365 C 187.049 358.471,184.781 369.759,192.771 373.097 C 193.670 373.473,197.253 373.890,202.593 374.242 C 218.579 375.293,217.438 374.839,217.789 380.296 C 218.089 384.959,217.725 386.809,216.510 386.788 C 216.119 386.781,214.360 387.218,212.600 387.759 C 208.628 388.980,204.129 390.008,202.780 390.003 C 202.219 390.002,201.575 390.185,201.349 390.411 C 201.123 390.637,199.846 390.998,198.511 391.213 C 196.157 391.592,195.573 391.822,192.970 393.392 C 189.953 395.212,188.928 400.637,191.019 403.714 C 193.304 407.077,197.167 408.032,202.676 406.597 C 204.585 406.100,205.858 406.064,209.936 406.396 C 212.656 406.616,215.030 406.705,215.213 406.592 C 215.924 406.152,219.695 406.306,219.992 406.787 C 220.621 407.805,220.855 413.178,220.317 414.270 C 219.701 415.524,217.212 416.385,214.176 416.394 C 213.025 416.397,211.818 416.653,211.376 416.987 C 210.794 417.428,209.370 417.578,205.671 417.587 C 196.088 417.612,191.985 423.396,196.677 430.267 C 198.824 433.409,199.294 433.532,209.400 433.576 C 218.717 433.616,219.030 433.687,218.632 435.656 C 218.482 436.395,218.215 438.217,218.038 439.704 C 217.615 443.269,216.850 444.155,214.433 443.882 C 211.594 443.562,205.930 444.649,202.086 446.252 C 201.364 446.554,200.589 446.800,200.364 446.800 C 198.251 446.800,194.209 450.188,193.338 452.689 C 191.428 458.175,196.375 463.609,202.189 462.411 C 210.603 460.679,216.937 461.512,218.190 464.517 C 219.854 468.505,219.277 469.498,214.600 470.701 C 213.720 470.927,212.460 471.307,211.800 471.546 C 207.893 472.957,204.806 473.600,201.941 473.600 C 193.182 473.600,188.682 481.006,193.867 486.890 C 194.589 487.709,195.294 488.834,195.433 489.390 C 195.631 490.179,195.940 490.400,196.843 490.400 C 197.605 490.400,198.000 490.605,198.000 491.000 C 198.000 491.472,198.556 491.600,200.600 491.600 C 202.644 491.600,203.200 491.472,203.200 491.000 C 203.200 490.490,204.244 490.400,210.200 490.400 C 216.156 490.400,217.200 490.310,217.200 489.800 C 217.200 489.470,217.470 489.200,217.800 489.200 C 218.130 489.200,218.400 489.470,218.400 489.800 C 218.400 490.130,218.670 490.400,219.000 490.400 C 219.444 490.400,219.600 490.867,219.600 492.200 C 219.600 493.533,219.756 494.000,220.200 494.000 C 220.586 494.000,220.802 494.392,220.807 495.100 C 220.817 496.740,222.359 498.000,224.356 498.000 C 225.551 498.000,226.000 498.164,226.000 498.600 C 226.000 499.067,226.533 499.200,228.400 499.200 C 230.267 499.200,230.800 499.067,230.800 498.600 C 230.800 498.181,231.222 498.000,232.200 498.000 C 233.178 498.000,233.600 497.819,233.600 497.400 C 233.600 497.070,233.870 496.800,234.200 496.800 C 234.530 496.800,234.800 496.530,234.800 496.200 C 234.800 495.870,235.070 495.600,235.400 495.600 C 235.819 495.600,236.000 495.178,236.000 494.200 C 236.000 493.222,236.181 492.800,236.600 492.800 C 237.067 492.800,237.200 492.267,237.200 490.400 C 237.200 488.615,237.343 488.000,237.757 488.000 C 238.455 488.000,238.800 487.129,238.800 485.367 C 238.800 484.419,238.984 484.000,239.400 484.000 C 239.844 484.000,240.000 483.533,240.000 482.200 C 240.000 480.867,240.156 480.400,240.600 480.400 C 241.101 480.400,241.200 479.583,241.200 475.443 C 241.200 471.405,241.089 470.443,240.600 470.255 C 240.088 470.059,240.000 468.476,240.000 459.400 C 240.000 450.324,240.088 448.741,240.600 448.545 C 241.057 448.369,241.200 447.622,241.200 445.400 C 241.200 443.178,241.343 442.431,241.800 442.255 C 242.242 442.086,242.400 441.388,242.400 439.613 C 242.400 437.735,242.533 437.200,243.000 437.200 C 243.472 437.200,243.600 436.644,243.600 434.600 C 243.600 432.556,243.728 432.000,244.200 432.000 C 244.667 432.000,244.800 431.467,244.800 429.600 C 244.800 427.806,244.942 427.200,245.362 427.200 C 246.237 427.200,246.496 420.807,246.235 405.600 C 246.108 398.230,246.004 390.985,246.002 389.500 C 246.000 387.368,245.874 386.800,245.400 386.800 C 244.874 386.800,244.800 384.200,244.800 365.800 C 244.800 347.400,244.726 344.800,244.200 344.800 C 243.676 344.800,243.600 342.711,243.600 328.400 C 243.600 314.089,243.676 312.000,244.200 312.000 C 244.691 312.000,244.800 311.311,244.800 308.200 C 244.800 305.089,244.909 304.400,245.400 304.400 C 245.897 304.400,246.000 303.644,246.000 300.000 C 246.000 296.356,245.897 295.600,245.400 295.600 C 244.917 295.600,244.800 294.978,244.800 292.400 C 244.800 289.822,244.683 289.200,244.200 289.200 C 243.717 289.200,243.600 288.578,243.600 286.000 C 243.600 283.422,243.717 282.800,244.200 282.800 C 244.672 282.800,244.800 282.244,244.800 280.200 C 244.800 278.282,244.942 277.600,245.341 277.600 C 245.738 277.600,245.951 276.611,246.143 273.881 C 246.470 269.233,246.098 265.200,245.343 265.200 C 244.966 265.200,244.800 264.647,244.800 263.387 C 244.800 262.145,244.611 261.502,244.200 261.345 C 243.703 261.154,243.600 260.061,243.600 254.957 C 243.600 249.751,243.507 248.800,243.000 248.800 C 242.670 248.800,242.400 248.530,242.400 248.200 C 242.400 247.870,242.130 247.600,241.800 247.600 C 241.467 247.600,241.200 247.244,241.200 246.800 C 241.200 246.360,240.949 246.000,240.643 246.000 C 240.336 246.000,239.982 245.730,239.855 245.400 C 239.620 244.786,237.574 244.559,237.045 245.089 M194.600 269.559 C 188.929 270.175,186.660 274.683,190.261 278.181 L 191.723 279.600 195.761 279.587 C 197.983 279.580,201.060 279.392,202.600 279.169 C 204.140 278.947,207.109 278.656,209.197 278.523 C 214.654 278.175,216.086 276.858,215.403 272.816 C 214.954 270.158,213.659 269.762,204.600 269.510 C 200.420 269.394,195.920 269.416,194.600 269.559 " stroke="none" fill="#fb4ca3" fill-rule="evenodd"></path><path id="path4" d="M40.500 79.087 C 41.105 79.178,42.095 79.178,42.700 79.087 C 43.305 78.995,42.810 78.920,41.600 78.920 C 40.390 78.920,39.895 78.995,40.500 79.087 M201.678 181.098 C 204.031 181.169,207.991 181.169,210.478 181.099 C 212.965 181.029,211.040 180.971,206.200 180.970 C 201.360 180.970,199.325 181.028,201.678 181.098 M220.800 185.221 C 221.842 185.930,223.600 186.828,223.600 186.650 C 223.600 186.428,220.839 184.798,220.477 184.806 C 220.325 184.809,220.470 184.996,220.800 185.221 M224.000 188.258 C 224.000 188.474,224.585 189.179,225.300 189.825 L 226.600 191.000 225.400 189.602 C 224.740 188.833,224.155 188.128,224.100 188.035 C 224.045 187.943,224.000 188.043,224.000 188.258 M190.976 220.587 C 190.549 220.910,189.827 221.180,189.370 221.187 C 188.370 221.203,185.012 223.524,184.074 224.848 C 183.506 225.651,183.381 227.087,183.279 234.000 C 183.189 240.097,183.009 242.523,182.579 243.460 C 182.260 244.154,182.000 245.077,182.000 245.511 C 182.000 245.946,181.730 246.526,181.400 246.800 C 181.070 247.074,180.800 247.596,180.800 247.960 C 180.800 248.324,180.567 248.977,180.282 249.411 C 179.532 250.553,178.739 252.485,179.115 252.252 C 179.478 252.028,181.993 246.941,182.800 244.800 C 183.135 243.911,183.438 240.219,183.629 234.684 C 184.003 223.821,184.392 223.112,191.000 221.226 C 192.710 220.738,197.653 221.493,198.537 222.377 C 198.770 222.610,199.329 222.802,199.780 222.805 C 200.231 222.807,202.204 223.347,204.164 224.005 C 206.124 224.662,208.211 225.200,208.802 225.200 C 209.985 225.200,210.945 226.077,211.403 227.573 C 211.567 228.109,212.128 229.350,212.650 230.333 C 213.268 231.494,213.612 232.833,213.634 234.160 C 213.652 235.282,213.832 237.280,214.033 238.600 C 214.234 239.920,214.598 242.776,214.842 244.947 C 215.462 250.459,218.434 256.000,220.772 256.000 C 220.975 256.000,221.224 256.315,221.324 256.700 C 221.498 257.367,221.509 257.367,221.554 256.700 C 221.579 256.315,221.746 256.000,221.925 256.000 C 222.103 256.000,222.657 255.415,223.154 254.700 L 224.058 253.400 223.048 254.500 C 222.493 255.105,221.686 255.600,221.256 255.600 C 220.201 255.600,216.928 251.894,216.579 250.303 C 216.424 249.601,216.141 248.750,215.948 248.413 C 215.755 248.076,215.426 246.090,215.217 244.000 C 215.007 241.910,214.660 239.210,214.447 238.000 C 214.233 236.790,214.045 234.873,214.029 233.741 C 214.009 232.327,213.639 230.949,212.849 229.341 C 212.216 228.053,211.577 226.605,211.429 226.123 C 211.166 225.265,208.027 224.004,206.138 223.998 C 205.732 223.996,204.897 223.733,204.283 223.412 C 203.669 223.092,202.499 222.719,201.683 222.584 C 200.867 222.449,199.660 222.101,199.000 221.812 C 197.859 221.313,192.869 220.000,192.111 220.000 C 191.914 220.000,191.404 220.264,190.976 220.587 M225.178 251.900 L 223.800 253.400 225.300 252.022 C 226.696 250.738,226.984 250.400,226.678 250.400 C 226.612 250.400,225.937 251.075,225.178 251.900 M179.198 253.726 C 179.831 255.499,179.666 257.693,178.800 259.000 C 177.727 260.620,177.784 261.183,178.879 259.790 C 180.032 258.325,180.355 254.569,179.429 253.400 C 178.825 252.637,178.814 252.652,179.198 253.726 M198.600 302.402 C 194.523 303.261,192.953 303.658,192.368 303.977 C 192.021 304.167,190.503 304.454,188.996 304.615 C 181.482 305.420,177.833 310.060,179.628 316.526 C 180.086 318.175,182.634 321.005,184.196 321.599 C 185.533 322.107,187.451 322.138,196.200 321.791 C 203.283 321.511,204.007 321.549,206.839 322.349 C 208.510 322.821,210.985 323.238,212.339 323.275 L 214.800 323.343 214.800 325.215 L 214.800 327.086 212.341 327.343 C 210.989 327.484,209.078 327.600,208.095 327.600 C 206.493 327.600,204.702 328.026,201.000 329.290 C 200.340 329.516,198.180 329.840,196.200 330.011 C 187.736 330.741,184.359 333.379,184.268 339.329 C 184.218 342.612,185.017 344.383,187.306 346.065 C 189.950 348.009,190.453 348.121,195.272 347.852 C 216.436 346.667,216.000 346.584,216.000 351.804 L 216.000 355.472 214.500 355.908 C 213.675 356.148,209.156 356.546,204.459 356.793 C 190.044 357.551,187.008 359.163,187.062 366.025 C 187.108 371.811,191.059 374.792,198.712 374.813 C 201.291 374.820,204.660 375.023,206.200 375.264 C 207.740 375.505,210.619 375.815,212.598 375.951 L 216.197 376.200 216.680 378.800 C 216.945 380.230,217.182 382.570,217.207 384.000 C 217.243 386.173,217.317 386.436,217.656 385.600 C 218.151 384.380,217.694 376.105,217.111 375.745 C 216.456 375.340,211.524 374.829,202.593 374.242 C 197.253 373.890,193.670 373.473,192.771 373.097 C 184.781 369.759,187.049 358.471,195.731 358.365 C 197.309 358.346,200.220 358.172,202.200 357.978 C 204.180 357.785,208.025 357.459,210.745 357.254 C 216.935 356.788,216.962 356.767,216.901 352.311 C 216.817 346.167,217.011 346.229,199.200 346.659 L 189.800 346.887 188.185 345.671 C 184.286 342.737,183.785 337.834,187.000 334.061 C 188.611 332.170,191.529 331.318,199.200 330.497 C 200.190 330.391,201.355 330.056,201.789 329.752 C 202.223 329.448,203.213 329.194,203.989 329.186 C 204.765 329.178,206.570 328.915,208.000 328.600 C 209.430 328.285,211.639 328.022,212.910 328.014 C 217.811 327.984,217.342 322.613,212.427 322.478 C 211.074 322.441,209.649 322.240,209.261 322.032 C 207.645 321.168,201.412 320.323,198.418 320.563 C 189.515 321.276,184.983 321.302,184.436 320.644 C 184.142 320.290,183.694 320.000,183.440 320.000 C 181.267 320.000,179.112 313.181,180.499 310.695 C 181.473 308.949,184.165 306.400,185.034 306.400 C 185.512 306.400,186.549 306.130,187.338 305.800 C 188.128 305.470,189.494 305.200,190.373 305.200 C 191.253 305.200,192.743 304.939,193.686 304.620 C 198.028 303.150,208.345 302.284,210.902 303.176 C 212.054 303.577,213.200 303.215,213.200 302.449 C 213.200 302.061,200.415 302.020,198.600 302.402 M212.800 387.431 L 211.800 388.033 212.800 387.768 C 214.252 387.384,215.203 386.824,214.400 386.826 C 214.070 386.827,213.350 387.099,212.800 387.431 M206.600 388.420 C 205.500 388.590,203.430 389.029,202.000 389.396 C 200.570 389.763,198.500 390.289,197.400 390.564 C 194.091 391.393,190.800 393.263,190.800 394.315 C 190.800 394.528,190.530 394.926,190.200 395.200 C 189.870 395.474,189.600 396.228,189.600 396.875 C 189.600 397.523,189.406 398.416,189.168 398.860 C 188.355 400.379,189.438 403.354,191.616 405.578 C 193.934 407.945,195.039 408.234,200.158 407.809 C 204.350 407.461,219.209 407.476,219.563 407.829 C 219.693 407.959,219.800 409.534,219.800 411.330 L 219.800 414.596 217.761 414.847 C 216.639 414.985,215.028 415.327,214.180 415.607 C 213.332 415.887,210.199 416.248,207.219 416.410 C 201.868 416.700,198.912 417.202,198.441 417.900 C 198.309 418.097,197.904 418.367,197.542 418.500 C 194.305 419.692,192.946 426.665,195.305 429.974 C 198.213 434.049,198.516 434.145,209.130 434.320 C 217.265 434.454,218.037 434.527,217.801 435.134 C 217.659 435.500,217.441 437.060,217.318 438.600 C 217.007 442.488,216.656 442.800,212.587 442.800 C 210.151 442.800,209.169 442.956,208.800 443.400 C 208.485 443.779,207.603 444.000,206.400 444.000 C 205.197 444.000,204.315 444.221,204.000 444.600 C 203.726 444.930,202.916 445.200,202.200 445.200 C 201.484 445.200,200.674 445.470,200.400 445.800 C 200.126 446.130,199.487 446.400,198.980 446.400 C 198.472 446.400,197.787 446.670,197.457 447.000 C 197.127 447.330,196.709 447.605,196.529 447.611 C 193.679 447.704,190.550 456.093,192.600 458.143 C 192.930 458.473,193.200 458.922,193.200 459.141 C 193.200 462.078,200.467 464.669,204.140 463.042 C 206.251 462.106,209.797 461.598,211.268 462.019 C 211.998 462.229,213.226 462.379,213.997 462.352 C 215.100 462.315,214.843 462.192,212.800 461.778 C 210.093 461.229,207.073 461.410,202.189 462.413 C 196.374 463.607,191.428 458.174,193.338 452.689 C 194.209 450.188,198.251 446.800,200.364 446.800 C 200.589 446.800,201.364 446.554,202.086 446.252 C 205.930 444.649,211.594 443.562,214.433 443.882 C 216.850 444.155,217.615 443.269,218.038 439.704 C 218.215 438.217,218.482 436.395,218.632 435.656 C 219.030 433.687,218.717 433.616,209.400 433.576 C 199.294 433.532,198.824 433.409,196.677 430.267 C 191.985 423.396,196.088 417.612,205.671 417.587 C 209.370 417.578,210.794 417.428,211.376 416.987 C 211.818 416.653,213.025 416.397,214.176 416.394 C 217.212 416.385,219.701 415.524,220.317 414.270 C 220.855 413.178,220.621 407.805,219.992 406.787 C 219.695 406.306,215.924 406.152,215.213 406.592 C 215.030 406.705,212.656 406.616,209.936 406.396 C 205.858 406.064,204.585 406.100,202.676 406.597 C 197.167 408.032,193.304 407.077,191.019 403.714 C 188.928 400.637,189.953 395.212,192.970 393.392 C 195.573 391.822,196.157 391.592,198.511 391.213 C 199.846 390.998,201.123 390.637,201.349 390.411 C 201.575 390.185,202.219 390.002,202.780 390.003 C 203.693 390.006,207.320 389.262,210.600 388.398 C 212.261 387.960,209.488 387.976,206.600 388.420 M216.983 463.872 C 217.285 464.493,217.593 465.900,217.666 467.000 L 217.800 469.000 215.902 469.218 C 214.858 469.338,213.787 469.653,213.522 469.918 C 213.257 470.183,212.818 470.400,212.546 470.400 C 212.274 470.400,211.545 470.612,210.926 470.870 C 208.658 471.817,205.301 472.468,201.200 472.757 C 197.667 473.006,196.746 473.217,195.400 474.085 C 190.057 477.532,189.339 483.823,193.791 488.185 C 194.456 488.836,194.947 489.601,194.882 489.885 C 194.818 490.168,194.953 490.400,195.182 490.400 C 196.125 490.400,195.351 488.517,193.620 486.600 C 188.636 481.080,193.423 473.600,201.941 473.600 C 204.806 473.600,207.893 472.957,211.800 471.546 C 212.460 471.307,213.720 470.927,214.600 470.701 C 218.760 469.631,219.012 469.444,218.872 467.537 C 218.732 465.633,217.678 463.130,216.917 462.894 C 216.563 462.785,216.581 463.047,216.983 463.872 " stroke="none" fill="#d4ac7c" fill-rule="evenodd"></path></g></svg>